<mxfile host="Electron" agent="Mozilla/5.0 (Windows NT 10.0; Win64; x64) AppleWebKit/537.36 (KHTML, like Gecko) draw.io/28.1.2 Chrome/138.0.7204.243 Electron/37.4.0 Safari/537.36" version="28.1.2" pages="3">
  <diagram name="single_agent" id="ryqNPN8wRz4Cyqu5al1_">
    <mxGraphModel dx="974" dy="571" grid="1" gridSize="10" guides="1" tooltips="1" connect="1" arrows="1" fold="1" page="1" pageScale="1" pageWidth="1100" pageHeight="850" math="1" shadow="0">
      <root>
        <mxCell id="0" />
        <mxCell id="1" parent="0" />
        <mxCell id="uW8E3HxP_4AaOPdNI9cq-63" value="" style="rounded=1;whiteSpace=wrap;html=1;fillColor=#d5e8d4;strokeColor=#82b366;arcSize=3;fontStyle=1" parent="1" vertex="1">
          <mxGeometry x="230" y="470" width="720" height="240" as="geometry" />
        </mxCell>
        <mxCell id="uW8E3HxP_4AaOPdNI9cq-65" value="" style="rounded=1;whiteSpace=wrap;html=1;fillColor=#f8cecc;strokeColor=#b85450;arcSize=4;fontStyle=1" parent="1" vertex="1">
          <mxGeometry x="380" y="260" width="430" height="200" as="geometry" />
        </mxCell>
        <mxCell id="vg7OMJK1I1ZizCe8qIWx-3" value="&lt;font style=&quot;font-size: 10px;&quot;&gt;Robot Inverse Kinematics&lt;/font&gt;" style="rounded=0;whiteSpace=wrap;html=1;fontStyle=1" parent="1" vertex="1">
          <mxGeometry x="520" y="570" width="80" height="40" as="geometry" />
        </mxCell>
        <mxCell id="vg7OMJK1I1ZizCe8qIWx-35" style="edgeStyle=orthogonalEdgeStyle;rounded=0;orthogonalLoop=1;jettySize=auto;html=1;entryX=0;entryY=0.5;entryDx=0;entryDy=0;fontStyle=1" parent="1" source="vg7OMJK1I1ZizCe8qIWx-4" target="vg7OMJK1I1ZizCe8qIWx-7" edge="1">
          <mxGeometry relative="1" as="geometry" />
        </mxCell>
        <mxCell id="uW8E3HxP_4AaOPdNI9cq-69" value="`\text{PWM}`" style="edgeLabel;html=1;align=center;verticalAlign=middle;resizable=0;points=[];fontStyle=1" parent="vg7OMJK1I1ZizCe8qIWx-35" vertex="1" connectable="0">
          <mxGeometry x="-0.3524" relative="1" as="geometry">
            <mxPoint x="11" as="offset" />
          </mxGeometry>
        </mxCell>
        <mxCell id="vg7OMJK1I1ZizCe8qIWx-4" value="&lt;font style=&quot;font-size: 10px;&quot;&gt;PID (Left)&lt;/font&gt;" style="rounded=0;whiteSpace=wrap;html=1;fontStyle=1" parent="1" vertex="1">
          <mxGeometry x="720" y="540" width="80" height="40" as="geometry" />
        </mxCell>
        <mxCell id="vg7OMJK1I1ZizCe8qIWx-31" style="edgeStyle=orthogonalEdgeStyle;rounded=0;orthogonalLoop=1;jettySize=auto;html=1;entryX=0;entryY=0.5;entryDx=0;entryDy=0;fontStyle=1;exitX=0.5;exitY=1;exitDx=0;exitDy=0;exitPerimeter=0;" parent="1" source="vg7OMJK1I1ZizCe8qIWx-5" target="vg7OMJK1I1ZizCe8qIWx-4" edge="1">
          <mxGeometry relative="1" as="geometry">
            <Array as="points">
              <mxPoint x="640" y="560" />
            </Array>
          </mxGeometry>
        </mxCell>
        <mxCell id="uW8E3HxP_4AaOPdNI9cq-82" value="`v_{\text{error}}`" style="edgeLabel;html=1;align=center;verticalAlign=middle;resizable=0;points=[];fontStyle=1" parent="vg7OMJK1I1ZizCe8qIWx-31" vertex="1" connectable="0">
          <mxGeometry x="-0.181" y="-3" relative="1" as="geometry">
            <mxPoint x="13" y="-3" as="offset" />
          </mxGeometry>
        </mxCell>
        <mxCell id="vg7OMJK1I1ZizCe8qIWx-5" value="" style="verticalLabelPosition=bottom;verticalAlign=top;html=1;shape=mxgraph.flowchart.or;fontStyle=1" parent="1" vertex="1">
          <mxGeometry x="620" y="510" width="40" height="40" as="geometry" />
        </mxCell>
        <mxCell id="vg7OMJK1I1ZizCe8qIWx-32" style="edgeStyle=orthogonalEdgeStyle;rounded=0;orthogonalLoop=1;jettySize=auto;html=1;entryX=0;entryY=0.5;entryDx=0;entryDy=0;fontStyle=1;exitX=0.5;exitY=0;exitDx=0;exitDy=0;exitPerimeter=0;" parent="1" source="vg7OMJK1I1ZizCe8qIWx-6" target="vg7OMJK1I1ZizCe8qIWx-11" edge="1">
          <mxGeometry relative="1" as="geometry">
            <Array as="points">
              <mxPoint x="640" y="620" />
            </Array>
          </mxGeometry>
        </mxCell>
        <mxCell id="uW8E3HxP_4AaOPdNI9cq-83" value="`v_{\text{error}}`" style="edgeLabel;html=1;align=center;verticalAlign=middle;resizable=0;points=[];fontStyle=1" parent="vg7OMJK1I1ZizCe8qIWx-32" vertex="1" connectable="0">
          <mxGeometry x="0.1619" y="-1" relative="1" as="geometry">
            <mxPoint x="-2" y="-1" as="offset" />
          </mxGeometry>
        </mxCell>
        <mxCell id="vg7OMJK1I1ZizCe8qIWx-6" value="" style="verticalLabelPosition=bottom;verticalAlign=top;html=1;shape=mxgraph.flowchart.or;fontStyle=1" parent="1" vertex="1">
          <mxGeometry x="620" y="630" width="40" height="40" as="geometry" />
        </mxCell>
        <mxCell id="vg7OMJK1I1ZizCe8qIWx-36" style="edgeStyle=orthogonalEdgeStyle;rounded=0;orthogonalLoop=1;jettySize=auto;html=1;entryX=0.5;entryY=1;entryDx=0;entryDy=0;fontStyle=1" parent="1" source="vg7OMJK1I1ZizCe8qIWx-7" target="vg7OMJK1I1ZizCe8qIWx-10" edge="1">
          <mxGeometry relative="1" as="geometry" />
        </mxCell>
        <mxCell id="vg7OMJK1I1ZizCe8qIWx-7" value="&lt;span style=&quot;font-size: 10px;&quot;&gt;Drive Motors (Left)&lt;/span&gt;" style="rounded=0;whiteSpace=wrap;html=1;fontStyle=1" parent="1" vertex="1">
          <mxGeometry x="860" y="540" width="80" height="40" as="geometry" />
        </mxCell>
        <mxCell id="vg7OMJK1I1ZizCe8qIWx-18" style="edgeStyle=orthogonalEdgeStyle;rounded=0;orthogonalLoop=1;jettySize=auto;html=1;entryX=1;entryY=0.5;entryDx=0;entryDy=0;exitX=0;exitY=0.5;exitDx=0;exitDy=0;fontStyle=1" parent="1" source="vg7OMJK1I1ZizCe8qIWx-10" target="vg7OMJK1I1ZizCe8qIWx-17" edge="1">
          <mxGeometry relative="1" as="geometry" />
        </mxCell>
        <mxCell id="uW8E3HxP_4AaOPdNI9cq-66" value="`\theta_{\text{estimated}}`" style="edgeLabel;html=1;align=center;verticalAlign=middle;resizable=0;points=[];fontStyle=1" parent="vg7OMJK1I1ZizCe8qIWx-18" vertex="1" connectable="0">
          <mxGeometry x="0.04" y="4" relative="1" as="geometry">
            <mxPoint x="12" y="-4" as="offset" />
          </mxGeometry>
        </mxCell>
        <mxCell id="vg7OMJK1I1ZizCe8qIWx-10" value="&lt;span style=&quot;font-size: 10px;&quot;&gt;Encoder (Left)&lt;/span&gt;" style="rounded=0;whiteSpace=wrap;html=1;fillColor=#f5f5f5;strokeColor=#666666;fontStyle=1;fillStyle=auto;fontColor=#333333;" parent="1" vertex="1">
          <mxGeometry x="860" y="480" width="80" height="40" as="geometry" />
        </mxCell>
        <mxCell id="vg7OMJK1I1ZizCe8qIWx-37" style="edgeStyle=orthogonalEdgeStyle;rounded=0;orthogonalLoop=1;jettySize=auto;html=1;entryX=0;entryY=0.5;entryDx=0;entryDy=0;fontStyle=1" parent="1" source="vg7OMJK1I1ZizCe8qIWx-11" target="vg7OMJK1I1ZizCe8qIWx-12" edge="1">
          <mxGeometry relative="1" as="geometry" />
        </mxCell>
        <mxCell id="uW8E3HxP_4AaOPdNI9cq-68" value="`\text{PWM}`" style="edgeLabel;html=1;align=center;verticalAlign=middle;resizable=0;points=[];fontStyle=1" parent="vg7OMJK1I1ZizCe8qIWx-37" vertex="1" connectable="0">
          <mxGeometry x="-0.219" y="-1" relative="1" as="geometry">
            <mxPoint x="7" y="-1" as="offset" />
          </mxGeometry>
        </mxCell>
        <mxCell id="vg7OMJK1I1ZizCe8qIWx-11" value="&lt;font style=&quot;font-size: 10px;&quot;&gt;PID (Right)&lt;/font&gt;" style="rounded=0;whiteSpace=wrap;html=1;fontStyle=1" parent="1" vertex="1">
          <mxGeometry x="720" y="600" width="80" height="40" as="geometry" />
        </mxCell>
        <mxCell id="vg7OMJK1I1ZizCe8qIWx-38" style="edgeStyle=orthogonalEdgeStyle;rounded=0;orthogonalLoop=1;jettySize=auto;html=1;entryX=0.5;entryY=0;entryDx=0;entryDy=0;fontStyle=1" parent="1" source="vg7OMJK1I1ZizCe8qIWx-12" target="vg7OMJK1I1ZizCe8qIWx-13" edge="1">
          <mxGeometry relative="1" as="geometry" />
        </mxCell>
        <mxCell id="vg7OMJK1I1ZizCe8qIWx-12" value="&lt;span style=&quot;font-size: 10px;&quot;&gt;Drive Motors (Right)&lt;/span&gt;" style="rounded=0;whiteSpace=wrap;html=1;fontStyle=1" parent="1" vertex="1">
          <mxGeometry x="860" y="600" width="80" height="40" as="geometry" />
        </mxCell>
        <mxCell id="vg7OMJK1I1ZizCe8qIWx-20" style="edgeStyle=orthogonalEdgeStyle;rounded=0;orthogonalLoop=1;jettySize=auto;html=1;entryX=1;entryY=0.5;entryDx=0;entryDy=0;exitX=0;exitY=0.5;exitDx=0;exitDy=0;fontStyle=1" parent="1" source="vg7OMJK1I1ZizCe8qIWx-13" target="vg7OMJK1I1ZizCe8qIWx-14" edge="1">
          <mxGeometry relative="1" as="geometry" />
        </mxCell>
        <mxCell id="uW8E3HxP_4AaOPdNI9cq-67" value="`\theta_{\text{estimated}}`" style="edgeLabel;html=1;align=center;verticalAlign=middle;resizable=0;points=[];fontStyle=1" parent="vg7OMJK1I1ZizCe8qIWx-20" vertex="1" connectable="0">
          <mxGeometry x="0.0857" y="1" relative="1" as="geometry">
            <mxPoint x="14" y="-1" as="offset" />
          </mxGeometry>
        </mxCell>
        <mxCell id="vg7OMJK1I1ZizCe8qIWx-13" value="&lt;span style=&quot;font-size: 10px;&quot;&gt;Encoder (Left)&lt;/span&gt;" style="rounded=0;whiteSpace=wrap;html=1;fillColor=#f5f5f5;strokeColor=#666666;fontStyle=1;fillStyle=auto;fontColor=#333333;" parent="1" vertex="1">
          <mxGeometry x="860" y="660" width="80" height="40" as="geometry" />
        </mxCell>
        <mxCell id="vg7OMJK1I1ZizCe8qIWx-14" value="&lt;span style=&quot;font-size: 10px;&quot;&gt;`\frac{d}{dt}`&lt;/span&gt;" style="rounded=0;whiteSpace=wrap;html=1;fontStyle=1" parent="1" vertex="1">
          <mxGeometry x="720" y="660" width="40" height="40" as="geometry" />
        </mxCell>
        <mxCell id="vg7OMJK1I1ZizCe8qIWx-17" value="&lt;span style=&quot;font-size: 10px;&quot;&gt;`\frac{d}{dt}`&lt;/span&gt;" style="rounded=0;whiteSpace=wrap;html=1;fontStyle=1" parent="1" vertex="1">
          <mxGeometry x="720" y="480" width="40" height="40" as="geometry" />
        </mxCell>
        <mxCell id="vg7OMJK1I1ZizCe8qIWx-19" style="edgeStyle=orthogonalEdgeStyle;rounded=0;orthogonalLoop=1;jettySize=auto;html=1;entryX=0.5;entryY=0;entryDx=0;entryDy=0;entryPerimeter=0;fontStyle=1" parent="1" source="vg7OMJK1I1ZizCe8qIWx-17" target="vg7OMJK1I1ZizCe8qIWx-5" edge="1">
          <mxGeometry relative="1" as="geometry">
            <Array as="points">
              <mxPoint x="640" y="500" />
            </Array>
          </mxGeometry>
        </mxCell>
        <mxCell id="uW8E3HxP_4AaOPdNI9cq-79" value="`v_{\text{estimated}}`" style="edgeLabel;html=1;align=center;verticalAlign=middle;resizable=0;points=[];fontStyle=1" parent="vg7OMJK1I1ZizCe8qIWx-19" vertex="1" connectable="0">
          <mxGeometry x="-0.2951" y="2" relative="1" as="geometry">
            <mxPoint y="-2" as="offset" />
          </mxGeometry>
        </mxCell>
        <mxCell id="vg7OMJK1I1ZizCe8qIWx-21" style="edgeStyle=orthogonalEdgeStyle;rounded=0;orthogonalLoop=1;jettySize=auto;html=1;entryX=0.5;entryY=1;entryDx=0;entryDy=0;entryPerimeter=0;fontStyle=1" parent="1" source="vg7OMJK1I1ZizCe8qIWx-14" target="vg7OMJK1I1ZizCe8qIWx-6" edge="1">
          <mxGeometry relative="1" as="geometry">
            <Array as="points">
              <mxPoint x="640" y="680" />
            </Array>
          </mxGeometry>
        </mxCell>
        <mxCell id="uW8E3HxP_4AaOPdNI9cq-80" value="`v_{\text{estimated}}`" style="edgeLabel;html=1;align=center;verticalAlign=middle;resizable=0;points=[];fontStyle=1" parent="vg7OMJK1I1ZizCe8qIWx-21" vertex="1" connectable="0">
          <mxGeometry x="-0.1431" y="1" relative="1" as="geometry">
            <mxPoint x="11" y="-1" as="offset" />
          </mxGeometry>
        </mxCell>
        <mxCell id="vg7OMJK1I1ZizCe8qIWx-29" style="edgeStyle=orthogonalEdgeStyle;rounded=0;orthogonalLoop=1;jettySize=auto;html=1;entryX=0;entryY=0.5;entryDx=0;entryDy=0;entryPerimeter=0;exitX=0.5;exitY=0;exitDx=0;exitDy=0;fontStyle=1" parent="1" source="vg7OMJK1I1ZizCe8qIWx-3" target="vg7OMJK1I1ZizCe8qIWx-5" edge="1">
          <mxGeometry relative="1" as="geometry">
            <Array as="points">
              <mxPoint x="570" y="530" />
            </Array>
          </mxGeometry>
        </mxCell>
        <mxCell id="uW8E3HxP_4AaOPdNI9cq-35" value="`v_\text{desired}`" style="edgeLabel;html=1;align=center;verticalAlign=middle;resizable=0;points=[];fontStyle=1" parent="vg7OMJK1I1ZizCe8qIWx-29" vertex="1" connectable="0">
          <mxGeometry x="0.0762" y="1" relative="1" as="geometry">
            <mxPoint x="-2" y="1" as="offset" />
          </mxGeometry>
        </mxCell>
        <mxCell id="vg7OMJK1I1ZizCe8qIWx-30" style="edgeStyle=orthogonalEdgeStyle;rounded=0;orthogonalLoop=1;jettySize=auto;html=1;entryX=0;entryY=0.5;entryDx=0;entryDy=0;entryPerimeter=0;exitX=0.5;exitY=1;exitDx=0;exitDy=0;fontStyle=1" parent="1" source="vg7OMJK1I1ZizCe8qIWx-3" target="vg7OMJK1I1ZizCe8qIWx-6" edge="1">
          <mxGeometry relative="1" as="geometry">
            <Array as="points">
              <mxPoint x="570" y="650" />
            </Array>
          </mxGeometry>
        </mxCell>
        <mxCell id="uW8E3HxP_4AaOPdNI9cq-81" value="`v_\text{desired}`" style="edgeLabel;html=1;align=center;verticalAlign=middle;resizable=0;points=[];fontStyle=1" parent="vg7OMJK1I1ZizCe8qIWx-30" vertex="1" connectable="0">
          <mxGeometry x="0.2521" relative="1" as="geometry">
            <mxPoint x="-8" as="offset" />
          </mxGeometry>
        </mxCell>
        <mxCell id="uW8E3HxP_4AaOPdNI9cq-25" style="edgeStyle=orthogonalEdgeStyle;rounded=0;orthogonalLoop=1;jettySize=auto;html=1;exitX=1;exitY=0.5;exitDx=0;exitDy=0;entryX=0;entryY=0.5;entryDx=0;entryDy=0;fontStyle=1" parent="1" source="uW8E3HxP_4AaOPdNI9cq-6" target="uW8E3HxP_4AaOPdNI9cq-7" edge="1">
          <mxGeometry relative="1" as="geometry" />
        </mxCell>
        <mxCell id="uW8E3HxP_4AaOPdNI9cq-37" value="`\mathbf{K}`" style="edgeLabel;html=1;align=center;verticalAlign=middle;resizable=0;points=[];fontStyle=1" parent="uW8E3HxP_4AaOPdNI9cq-25" vertex="1" connectable="0">
          <mxGeometry x="-0.0905" relative="1" as="geometry">
            <mxPoint as="offset" />
          </mxGeometry>
        </mxCell>
        <mxCell id="uW8E3HxP_4AaOPdNI9cq-6" value="&lt;font style=&quot;font-size: 10px;&quot;&gt;Parameter&lt;/font&gt;&lt;div&gt;&lt;span style=&quot;font-size: 10px;&quot;&gt;Estimator&lt;/span&gt;&lt;/div&gt;" style="rounded=0;whiteSpace=wrap;html=1;fontStyle=1;fillColor=#fff2cc;strokeColor=light-dark(#000000,#6D5100);" parent="1" vertex="1">
          <mxGeometry x="390" y="320" width="80" height="80" as="geometry" />
        </mxCell>
        <mxCell id="uW8E3HxP_4AaOPdNI9cq-7" value="&lt;span style=&quot;font-size: 10px;&quot;&gt;Admittance Controller&lt;/span&gt;" style="rounded=0;whiteSpace=wrap;html=1;fontStyle=1" parent="1" vertex="1">
          <mxGeometry x="520" y="320" width="80" height="80" as="geometry" />
        </mxCell>
        <mxCell id="uW8E3HxP_4AaOPdNI9cq-29" style="edgeStyle=orthogonalEdgeStyle;rounded=0;orthogonalLoop=1;jettySize=auto;html=1;entryX=0.5;entryY=0;entryDx=0;entryDy=0;fontStyle=1" parent="1" source="uW8E3HxP_4AaOPdNI9cq-8" target="uW8E3HxP_4AaOPdNI9cq-16" edge="1">
          <mxGeometry relative="1" as="geometry" />
        </mxCell>
        <mxCell id="uW8E3HxP_4AaOPdNI9cq-51" value="`\mathbf{\theta}_{\text{desired}}`" style="edgeLabel;html=1;align=center;verticalAlign=middle;resizable=0;points=[];fontStyle=1" parent="uW8E3HxP_4AaOPdNI9cq-29" vertex="1" connectable="0">
          <mxGeometry x="0.64" relative="1" as="geometry">
            <mxPoint y="-11" as="offset" />
          </mxGeometry>
        </mxCell>
        <mxCell id="uW8E3HxP_4AaOPdNI9cq-8" value="&lt;span style=&quot;font-size: 10px;&quot;&gt;Inverse Kinematics&lt;/span&gt;" style="rounded=0;whiteSpace=wrap;html=1;fontStyle=1" parent="1" vertex="1">
          <mxGeometry x="720" y="270" width="80" height="40" as="geometry" />
        </mxCell>
        <mxCell id="uW8E3HxP_4AaOPdNI9cq-9" value="" style="verticalLabelPosition=bottom;verticalAlign=top;html=1;shape=mxgraph.flowchart.or;fontStyle=1" parent="1" vertex="1">
          <mxGeometry x="640" y="340" width="40" height="40" as="geometry" />
        </mxCell>
        <mxCell id="uW8E3HxP_4AaOPdNI9cq-11" style="edgeStyle=orthogonalEdgeStyle;rounded=0;orthogonalLoop=1;jettySize=auto;html=1;entryX=0.5;entryY=0;entryDx=0;entryDy=0;entryPerimeter=0;exitX=0.5;exitY=0;exitDx=0;exitDy=0;fontStyle=1" parent="1" source="uW8E3HxP_4AaOPdNI9cq-6" target="uW8E3HxP_4AaOPdNI9cq-9" edge="1">
          <mxGeometry relative="1" as="geometry">
            <Array as="points">
              <mxPoint x="430" y="290" />
              <mxPoint x="660" y="290" />
            </Array>
          </mxGeometry>
        </mxCell>
        <mxCell id="uW8E3HxP_4AaOPdNI9cq-42" value="`x_{\text{virtual}}`" style="edgeLabel;html=1;align=center;verticalAlign=middle;resizable=0;points=[];fontStyle=1" parent="uW8E3HxP_4AaOPdNI9cq-11" vertex="1" connectable="0">
          <mxGeometry x="0.0067" y="-1" relative="1" as="geometry">
            <mxPoint x="-1" y="-1" as="offset" />
          </mxGeometry>
        </mxCell>
        <mxCell id="uW8E3HxP_4AaOPdNI9cq-12" style="edgeStyle=orthogonalEdgeStyle;rounded=0;orthogonalLoop=1;jettySize=auto;html=1;entryX=0;entryY=0.5;entryDx=0;entryDy=0;entryPerimeter=0;exitX=1;exitY=0.5;exitDx=0;exitDy=0;fontStyle=1" parent="1" source="uW8E3HxP_4AaOPdNI9cq-7" target="uW8E3HxP_4AaOPdNI9cq-9" edge="1">
          <mxGeometry relative="1" as="geometry" />
        </mxCell>
        <mxCell id="uW8E3HxP_4AaOPdNI9cq-47" value="`\Delta x`" style="edgeLabel;html=1;align=center;verticalAlign=middle;resizable=0;points=[];fontStyle=1" parent="uW8E3HxP_4AaOPdNI9cq-12" vertex="1" connectable="0">
          <mxGeometry relative="1" as="geometry">
            <mxPoint as="offset" />
          </mxGeometry>
        </mxCell>
        <mxCell id="uW8E3HxP_4AaOPdNI9cq-14" style="edgeStyle=orthogonalEdgeStyle;rounded=0;orthogonalLoop=1;jettySize=auto;html=1;entryX=0;entryY=0.5;entryDx=0;entryDy=0;fontStyle=1" parent="1" source="uW8E3HxP_4AaOPdNI9cq-9" target="uW8E3HxP_4AaOPdNI9cq-8" edge="1">
          <mxGeometry relative="1" as="geometry">
            <mxPoint x="715" y="313" as="targetPoint" />
          </mxGeometry>
        </mxCell>
        <mxCell id="uW8E3HxP_4AaOPdNI9cq-48" value="`x_{\text{desired}}`" style="edgeLabel;html=1;align=center;verticalAlign=middle;resizable=0;points=[];fontStyle=1" parent="uW8E3HxP_4AaOPdNI9cq-14" vertex="1" connectable="0">
          <mxGeometry x="0.2" y="-1" relative="1" as="geometry">
            <mxPoint x="-1" y="6" as="offset" />
          </mxGeometry>
        </mxCell>
        <mxCell id="uW8E3HxP_4AaOPdNI9cq-30" style="edgeStyle=orthogonalEdgeStyle;rounded=0;orthogonalLoop=1;jettySize=auto;html=1;entryX=0.5;entryY=0;entryDx=0;entryDy=0;fontStyle=1" parent="1" source="uW8E3HxP_4AaOPdNI9cq-16" target="uW8E3HxP_4AaOPdNI9cq-17" edge="1">
          <mxGeometry relative="1" as="geometry" />
        </mxCell>
        <mxCell id="uW8E3HxP_4AaOPdNI9cq-52" value="`F`" style="edgeLabel;html=1;align=center;verticalAlign=middle;resizable=0;points=[];fontStyle=1" parent="uW8E3HxP_4AaOPdNI9cq-30" vertex="1" connectable="0">
          <mxGeometry x="-0.0156" relative="1" as="geometry">
            <mxPoint x="-42" as="offset" />
          </mxGeometry>
        </mxCell>
        <mxCell id="uW8E3HxP_4AaOPdNI9cq-16" value="&lt;span style=&quot;font-size: 10px;&quot;&gt;Servo Motors&lt;/span&gt;&lt;div&gt;&lt;span style=&quot;font-size: 10px;&quot;&gt;(Joints)&lt;/span&gt;&lt;/div&gt;" style="rounded=0;whiteSpace=wrap;html=1;fontStyle=1" parent="1" vertex="1">
          <mxGeometry x="720" y="340" width="80" height="40" as="geometry" />
        </mxCell>
        <mxCell id="uW8E3HxP_4AaOPdNI9cq-24" style="edgeStyle=orthogonalEdgeStyle;rounded=0;orthogonalLoop=1;jettySize=auto;html=1;entryX=1;entryY=0.5;entryDx=0;entryDy=0;fontStyle=1" parent="1" source="uW8E3HxP_4AaOPdNI9cq-17" target="uW8E3HxP_4AaOPdNI9cq-18" edge="1">
          <mxGeometry relative="1" as="geometry" />
        </mxCell>
        <mxCell id="uW8E3HxP_4AaOPdNI9cq-45" value="`F_{\text{actual}}`" style="edgeLabel;html=1;align=center;verticalAlign=middle;resizable=0;points=[];fontStyle=1" parent="uW8E3HxP_4AaOPdNI9cq-24" vertex="1" connectable="0">
          <mxGeometry x="-0.0222" y="1" relative="1" as="geometry">
            <mxPoint y="-1" as="offset" />
          </mxGeometry>
        </mxCell>
        <mxCell id="uW8E3HxP_4AaOPdNI9cq-17" value="&lt;span style=&quot;font-size: 10px;&quot;&gt;Environment&lt;/span&gt;&lt;div&gt;&lt;span style=&quot;font-size: 10px;&quot;&gt;(Payload)&lt;/span&gt;&lt;/div&gt;" style="rounded=0;whiteSpace=wrap;html=1;fontStyle=1" parent="1" vertex="1">
          <mxGeometry x="860" y="410" width="80" height="40" as="geometry" />
        </mxCell>
        <mxCell id="uW8E3HxP_4AaOPdNI9cq-23" style="edgeStyle=orthogonalEdgeStyle;rounded=0;orthogonalLoop=1;jettySize=auto;html=1;entryX=0.5;entryY=1;entryDx=0;entryDy=0;fontStyle=1" parent="1" source="uW8E3HxP_4AaOPdNI9cq-18" target="uW8E3HxP_4AaOPdNI9cq-7" edge="1">
          <mxGeometry relative="1" as="geometry" />
        </mxCell>
        <mxCell id="uW8E3HxP_4AaOPdNI9cq-44" value="`F_\text{measured}`" style="edgeLabel;html=1;align=center;verticalAlign=middle;resizable=0;points=[];fontStyle=1" parent="uW8E3HxP_4AaOPdNI9cq-23" vertex="1" connectable="0">
          <mxGeometry x="0.0509" relative="1" as="geometry">
            <mxPoint x="10" as="offset" />
          </mxGeometry>
        </mxCell>
        <mxCell id="uW8E3HxP_4AaOPdNI9cq-18" value="&lt;span style=&quot;font-size: 10px;&quot;&gt;FSR&lt;/span&gt;" style="rounded=0;whiteSpace=wrap;html=1;fillColor=#f5f5f5;strokeColor=#666666;fontStyle=1;fillStyle=auto;fontColor=#333333;" parent="1" vertex="1">
          <mxGeometry x="720" y="410" width="80" height="40" as="geometry" />
        </mxCell>
        <mxCell id="uW8E3HxP_4AaOPdNI9cq-21" style="edgeStyle=orthogonalEdgeStyle;rounded=0;orthogonalLoop=1;jettySize=auto;html=1;entryX=0;entryY=0.5;entryDx=0;entryDy=0;fontStyle=1" parent="1" target="mpPiCZ5xlvJnR0Xn32ME-7" edge="1">
          <mxGeometry relative="1" as="geometry">
            <mxPoint x="160" y="590" as="sourcePoint" />
            <mxPoint x="240" y="630" as="targetPoint" />
            <Array as="points">
              <mxPoint x="180" y="590" />
            </Array>
          </mxGeometry>
        </mxCell>
        <mxCell id="uW8E3HxP_4AaOPdNI9cq-22" value="`\text{Goal Pose}`" style="edgeLabel;html=1;align=center;verticalAlign=middle;resizable=0;points=[];fontStyle=1" parent="uW8E3HxP_4AaOPdNI9cq-21" vertex="1" connectable="0">
          <mxGeometry x="-0.1917" relative="1" as="geometry">
            <mxPoint x="-1" as="offset" />
          </mxGeometry>
        </mxCell>
        <mxCell id="uW8E3HxP_4AaOPdNI9cq-86" value="&lt;span&gt;&lt;font style=&quot;font-size: 18px;&quot;&gt;MOBILE BASE&lt;/font&gt;&lt;/span&gt;" style="text;html=1;align=left;verticalAlign=middle;resizable=0;points=[];autosize=1;strokeColor=none;fillColor=none;fontStyle=1" parent="1" vertex="1">
          <mxGeometry x="230" y="440" width="140" height="40" as="geometry" />
        </mxCell>
        <mxCell id="uW8E3HxP_4AaOPdNI9cq-88" value="&lt;span&gt;&lt;font style=&quot;font-size: 18px;&quot;&gt;MANIPULATOR&lt;/font&gt;&lt;/span&gt;" style="text;html=1;align=left;verticalAlign=middle;resizable=0;points=[];autosize=1;strokeColor=none;fillColor=none;fontStyle=1" parent="1" vertex="1">
          <mxGeometry x="380" y="230" width="150" height="40" as="geometry" />
        </mxCell>
        <mxCell id="uW8E3HxP_4AaOPdNI9cq-58" style="edgeStyle=orthogonalEdgeStyle;rounded=0;orthogonalLoop=1;jettySize=auto;html=1;entryX=0;entryY=0.5;entryDx=0;entryDy=0;fontStyle=1;" parent="1" target="uW8E3HxP_4AaOPdNI9cq-6" edge="1">
          <mxGeometry relative="1" as="geometry">
            <Array as="points">
              <mxPoint x="240" y="360" />
            </Array>
            <mxPoint x="240" y="360" as="sourcePoint" />
          </mxGeometry>
        </mxCell>
        <mxCell id="uW8E3HxP_4AaOPdNI9cq-62" value="`(x_{\text{monica}}-x_{\text{ross}})`" style="edgeLabel;html=1;align=center;verticalAlign=middle;resizable=0;points=[];fontStyle=1" parent="uW8E3HxP_4AaOPdNI9cq-58" vertex="1" connectable="0">
          <mxGeometry x="-0.2367" relative="1" as="geometry">
            <mxPoint x="11" as="offset" />
          </mxGeometry>
        </mxCell>
        <mxCell id="mpPiCZ5xlvJnR0Xn32ME-16" style="edgeStyle=orthogonalEdgeStyle;rounded=0;orthogonalLoop=1;jettySize=auto;html=1;entryX=0.5;entryY=0;entryDx=0;entryDy=0;exitX=0.5;exitY=1;exitDx=0;exitDy=0;entryPerimeter=0;" edge="1" parent="1" source="mpPiCZ5xlvJnR0Xn32ME-7" target="mpPiCZ5xlvJnR0Xn32ME-37">
          <mxGeometry relative="1" as="geometry" />
        </mxCell>
        <mxCell id="mpPiCZ5xlvJnR0Xn32ME-26" value="&lt;b&gt;`x`&lt;/b&gt;" style="edgeLabel;html=1;align=center;verticalAlign=middle;resizable=0;points=[];" vertex="1" connectable="0" parent="mpPiCZ5xlvJnR0Xn32ME-16">
          <mxGeometry x="0.0071" y="-1" relative="1" as="geometry">
            <mxPoint x="1" y="-5" as="offset" />
          </mxGeometry>
        </mxCell>
        <mxCell id="mpPiCZ5xlvJnR0Xn32ME-28" style="edgeStyle=orthogonalEdgeStyle;rounded=0;orthogonalLoop=1;jettySize=auto;html=1;entryX=0.5;entryY=1;entryDx=0;entryDy=0;exitX=0.5;exitY=0;exitDx=0;exitDy=0;entryPerimeter=0;" edge="1" parent="1" source="mpPiCZ5xlvJnR0Xn32ME-7" target="mpPiCZ5xlvJnR0Xn32ME-36">
          <mxGeometry relative="1" as="geometry" />
        </mxCell>
        <mxCell id="mpPiCZ5xlvJnR0Xn32ME-29" value="&lt;b&gt;`y`&lt;/b&gt;" style="edgeLabel;html=1;align=center;verticalAlign=middle;resizable=0;points=[];" vertex="1" connectable="0" parent="mpPiCZ5xlvJnR0Xn32ME-28">
          <mxGeometry x="-0.0133" relative="1" as="geometry">
            <mxPoint y="5" as="offset" />
          </mxGeometry>
        </mxCell>
        <mxCell id="mpPiCZ5xlvJnR0Xn32ME-7" value="&lt;font style=&quot;font-size: 10px;&quot;&gt;Optimal Coordinated Planner&lt;/font&gt;" style="rounded=0;whiteSpace=wrap;html=1;fontStyle=1" vertex="1" parent="1">
          <mxGeometry x="240" y="550" width="80" height="80" as="geometry" />
        </mxCell>
        <mxCell id="mpPiCZ5xlvJnR0Xn32ME-21" style="edgeStyle=orthogonalEdgeStyle;rounded=0;orthogonalLoop=1;jettySize=auto;html=1;entryX=0.5;entryY=1;entryDx=0;entryDy=0;entryPerimeter=0;" edge="1" parent="1" source="mpPiCZ5xlvJnR0Xn32ME-11" target="mpPiCZ5xlvJnR0Xn32ME-30">
          <mxGeometry relative="1" as="geometry">
            <mxPoint x="646.5" y="640" as="targetPoint" />
          </mxGeometry>
        </mxCell>
        <mxCell id="mpPiCZ5xlvJnR0Xn32ME-22" value="&lt;span style=&quot;font-weight: 700;&quot;&gt;`\dot x_\text{cmd}`&lt;/span&gt;" style="edgeLabel;html=1;align=center;verticalAlign=middle;resizable=0;points=[];" vertex="1" connectable="0" parent="mpPiCZ5xlvJnR0Xn32ME-21">
          <mxGeometry x="-0.188" y="1" relative="1" as="geometry">
            <mxPoint x="-25" y="1" as="offset" />
          </mxGeometry>
        </mxCell>
        <mxCell id="mpPiCZ5xlvJnR0Xn32ME-11" value="&lt;font style=&quot;font-size: 10px;&quot;&gt;PID&lt;/font&gt;" style="rounded=0;whiteSpace=wrap;html=1;fontStyle=1" vertex="1" parent="1">
          <mxGeometry x="360" y="660" width="40" height="40" as="geometry" />
        </mxCell>
        <mxCell id="mpPiCZ5xlvJnR0Xn32ME-27" value="&lt;font style=&quot;font-size: 10px;&quot;&gt;PD&lt;/font&gt;" style="rounded=0;whiteSpace=wrap;html=1;fontStyle=1" vertex="1" parent="1">
          <mxGeometry x="360" y="480" width="40" height="40" as="geometry" />
        </mxCell>
        <mxCell id="mpPiCZ5xlvJnR0Xn32ME-31" style="edgeStyle=orthogonalEdgeStyle;rounded=0;orthogonalLoop=1;jettySize=auto;html=1;entryX=0;entryY=0.5;entryDx=0;entryDy=0;" edge="1" parent="1" source="mpPiCZ5xlvJnR0Xn32ME-30" target="vg7OMJK1I1ZizCe8qIWx-3">
          <mxGeometry relative="1" as="geometry">
            <mxPoint x="490" y="700" as="targetPoint" />
          </mxGeometry>
        </mxCell>
        <mxCell id="mpPiCZ5xlvJnR0Xn32ME-32" value="&lt;span style=&quot;font-weight: 700;&quot;&gt;`v_\text{cmd}`&lt;/span&gt;" style="edgeLabel;html=1;align=center;verticalAlign=middle;resizable=0;points=[];" vertex="1" connectable="0" parent="mpPiCZ5xlvJnR0Xn32ME-31">
          <mxGeometry x="-0.0574" relative="1" as="geometry">
            <mxPoint x="1" as="offset" />
          </mxGeometry>
        </mxCell>
        <mxCell id="mpPiCZ5xlvJnR0Xn32ME-30" value="" style="verticalLabelPosition=bottom;verticalAlign=top;html=1;shape=mxgraph.flowchart.or;fontStyle=1" vertex="1" parent="1">
          <mxGeometry x="440" y="570" width="40" height="40" as="geometry" />
        </mxCell>
        <mxCell id="mpPiCZ5xlvJnR0Xn32ME-33" value="&lt;font style=&quot;font-size: 10px;&quot;&gt;PID&lt;/font&gt;" style="rounded=0;whiteSpace=wrap;html=1;fontStyle=1" vertex="1" parent="1">
          <mxGeometry x="440" y="480" width="40" height="40" as="geometry" />
        </mxCell>
        <mxCell id="mpPiCZ5xlvJnR0Xn32ME-34" style="edgeStyle=orthogonalEdgeStyle;rounded=0;orthogonalLoop=1;jettySize=auto;html=1;entryX=0.5;entryY=0;entryDx=0;entryDy=0;entryPerimeter=0;exitX=0.5;exitY=1;exitDx=0;exitDy=0;" edge="1" parent="1" source="mpPiCZ5xlvJnR0Xn32ME-33" target="mpPiCZ5xlvJnR0Xn32ME-30">
          <mxGeometry relative="1" as="geometry" />
        </mxCell>
        <mxCell id="mpPiCZ5xlvJnR0Xn32ME-35" value="&lt;span style=&quot;font-weight: 700;&quot;&gt;`\dot \theta_\text{cmd}`&lt;/span&gt;" style="edgeLabel;html=1;align=center;verticalAlign=middle;resizable=0;points=[];" vertex="1" connectable="0" parent="mpPiCZ5xlvJnR0Xn32ME-34">
          <mxGeometry x="-0.1929" relative="1" as="geometry">
            <mxPoint as="offset" />
          </mxGeometry>
        </mxCell>
        <mxCell id="mpPiCZ5xlvJnR0Xn32ME-43" style="edgeStyle=orthogonalEdgeStyle;rounded=0;orthogonalLoop=1;jettySize=auto;html=1;entryX=0;entryY=0.5;entryDx=0;entryDy=0;" edge="1" parent="1" source="mpPiCZ5xlvJnR0Xn32ME-36" target="mpPiCZ5xlvJnR0Xn32ME-27">
          <mxGeometry relative="1" as="geometry" />
        </mxCell>
        <mxCell id="mpPiCZ5xlvJnR0Xn32ME-44" value="&lt;b&gt;`e^y`&lt;/b&gt;" style="edgeLabel;html=1;align=center;verticalAlign=middle;resizable=0;points=[];" vertex="1" connectable="0" parent="mpPiCZ5xlvJnR0Xn32ME-43">
          <mxGeometry x="0.1571" y="1" relative="1" as="geometry">
            <mxPoint x="-3" y="1" as="offset" />
          </mxGeometry>
        </mxCell>
        <mxCell id="mpPiCZ5xlvJnR0Xn32ME-36" value="" style="verticalLabelPosition=bottom;verticalAlign=top;html=1;shape=mxgraph.flowchart.or;fontStyle=1" vertex="1" parent="1">
          <mxGeometry x="260" y="480" width="40" height="40" as="geometry" />
        </mxCell>
        <mxCell id="mpPiCZ5xlvJnR0Xn32ME-42" style="edgeStyle=orthogonalEdgeStyle;rounded=0;orthogonalLoop=1;jettySize=auto;html=1;entryX=0;entryY=0.5;entryDx=0;entryDy=0;" edge="1" parent="1" source="mpPiCZ5xlvJnR0Xn32ME-37" target="mpPiCZ5xlvJnR0Xn32ME-11">
          <mxGeometry relative="1" as="geometry" />
        </mxCell>
        <mxCell id="mpPiCZ5xlvJnR0Xn32ME-45" value="&lt;b&gt;`e^x`&lt;/b&gt;" style="edgeLabel;html=1;align=center;verticalAlign=middle;resizable=0;points=[];" vertex="1" connectable="0" parent="mpPiCZ5xlvJnR0Xn32ME-42">
          <mxGeometry x="-0.0643" relative="1" as="geometry">
            <mxPoint x="1" as="offset" />
          </mxGeometry>
        </mxCell>
        <mxCell id="mpPiCZ5xlvJnR0Xn32ME-37" value="" style="verticalLabelPosition=bottom;verticalAlign=top;html=1;shape=mxgraph.flowchart.or;fontStyle=1" vertex="1" parent="1">
          <mxGeometry x="260" y="660" width="40" height="40" as="geometry" />
        </mxCell>
        <mxCell id="mpPiCZ5xlvJnR0Xn32ME-38" style="edgeStyle=orthogonalEdgeStyle;rounded=0;orthogonalLoop=1;jettySize=auto;html=1;entryX=0;entryY=0.5;entryDx=0;entryDy=0;entryPerimeter=0;" edge="1" parent="1" target="mpPiCZ5xlvJnR0Xn32ME-36">
          <mxGeometry relative="1" as="geometry">
            <mxPoint x="160" y="500" as="sourcePoint" />
            <mxPoint x="430" y="520" as="targetPoint" />
            <Array as="points">
              <mxPoint x="220" y="500" />
              <mxPoint x="220" y="500" />
            </Array>
          </mxGeometry>
        </mxCell>
        <mxCell id="mpPiCZ5xlvJnR0Xn32ME-39" value="&lt;b&gt;`\hat y`&lt;/b&gt;" style="edgeLabel;html=1;align=center;verticalAlign=middle;resizable=0;points=[];" vertex="1" connectable="0" parent="mpPiCZ5xlvJnR0Xn32ME-38">
          <mxGeometry x="-0.0133" relative="1" as="geometry">
            <mxPoint as="offset" />
          </mxGeometry>
        </mxCell>
        <mxCell id="mpPiCZ5xlvJnR0Xn32ME-40" style="edgeStyle=orthogonalEdgeStyle;rounded=0;orthogonalLoop=1;jettySize=auto;html=1;entryX=0;entryY=0.5;entryDx=0;entryDy=0;entryPerimeter=0;" edge="1" parent="1" target="mpPiCZ5xlvJnR0Xn32ME-37">
          <mxGeometry relative="1" as="geometry">
            <mxPoint x="160" y="680" as="sourcePoint" />
            <mxPoint x="420" y="570" as="targetPoint" />
            <Array as="points">
              <mxPoint x="230" y="680" />
              <mxPoint x="230" y="680" />
            </Array>
          </mxGeometry>
        </mxCell>
        <mxCell id="mpPiCZ5xlvJnR0Xn32ME-41" value="&lt;b&gt;`\hat x`&lt;/b&gt;" style="edgeLabel;html=1;align=center;verticalAlign=middle;resizable=0;points=[];" vertex="1" connectable="0" parent="mpPiCZ5xlvJnR0Xn32ME-40">
          <mxGeometry x="-0.0133" relative="1" as="geometry">
            <mxPoint as="offset" />
          </mxGeometry>
        </mxCell>
        <mxCell id="mpPiCZ5xlvJnR0Xn32ME-46" value="" style="verticalLabelPosition=bottom;verticalAlign=top;html=1;shape=mxgraph.flowchart.or;fontStyle=1" vertex="1" parent="1">
          <mxGeometry x="360" y="570" width="40" height="40" as="geometry" />
        </mxCell>
        <mxCell id="mpPiCZ5xlvJnR0Xn32ME-47" style="edgeStyle=orthogonalEdgeStyle;rounded=0;orthogonalLoop=1;jettySize=auto;html=1;entryX=0.5;entryY=0;entryDx=0;entryDy=0;entryPerimeter=0;" edge="1" parent="1" source="mpPiCZ5xlvJnR0Xn32ME-27" target="mpPiCZ5xlvJnR0Xn32ME-46">
          <mxGeometry relative="1" as="geometry" />
        </mxCell>
        <mxCell id="mpPiCZ5xlvJnR0Xn32ME-48" value="`\theta_d`" style="edgeLabel;html=1;align=center;verticalAlign=middle;resizable=0;points=[];" vertex="1" connectable="0" parent="mpPiCZ5xlvJnR0Xn32ME-47">
          <mxGeometry x="-0.02" relative="1" as="geometry">
            <mxPoint as="offset" />
          </mxGeometry>
        </mxCell>
        <mxCell id="mpPiCZ5xlvJnR0Xn32ME-49" style="edgeStyle=orthogonalEdgeStyle;rounded=0;orthogonalLoop=1;jettySize=auto;html=1;entryX=0;entryY=0.5;entryDx=0;entryDy=0;exitX=1;exitY=0.5;exitDx=0;exitDy=0;exitPerimeter=0;" edge="1" parent="1" source="mpPiCZ5xlvJnR0Xn32ME-46" target="mpPiCZ5xlvJnR0Xn32ME-33">
          <mxGeometry relative="1" as="geometry">
            <mxPoint x="740" y="510" as="targetPoint" />
            <Array as="points">
              <mxPoint x="420" y="590" />
              <mxPoint x="420" y="500" />
            </Array>
          </mxGeometry>
        </mxCell>
        <mxCell id="mpPiCZ5xlvJnR0Xn32ME-50" value="&lt;b&gt;`e^\theta`&lt;/b&gt;" style="edgeLabel;html=1;align=center;verticalAlign=middle;resizable=0;points=[];" vertex="1" connectable="0" parent="mpPiCZ5xlvJnR0Xn32ME-49">
          <mxGeometry x="0.0067" relative="1" as="geometry">
            <mxPoint as="offset" />
          </mxGeometry>
        </mxCell>
        <mxCell id="mpPiCZ5xlvJnR0Xn32ME-51" style="edgeStyle=orthogonalEdgeStyle;rounded=0;orthogonalLoop=1;jettySize=auto;html=1;entryX=0.5;entryY=1;entryDx=0;entryDy=0;entryPerimeter=0;jumpStyle=arc;jumpSize=14;" edge="1" parent="1" target="mpPiCZ5xlvJnR0Xn32ME-46">
          <mxGeometry relative="1" as="geometry">
            <mxPoint x="160" y="640" as="sourcePoint" />
            <mxPoint x="430" y="530" as="targetPoint" />
            <Array as="points">
              <mxPoint x="160" y="640" />
              <mxPoint x="380" y="640" />
            </Array>
          </mxGeometry>
        </mxCell>
        <mxCell id="mpPiCZ5xlvJnR0Xn32ME-52" value="&lt;b&gt;`\hat \theta`&lt;/b&gt;" style="edgeLabel;html=1;align=center;verticalAlign=middle;resizable=0;points=[];" vertex="1" connectable="0" parent="mpPiCZ5xlvJnR0Xn32ME-51">
          <mxGeometry x="-0.0133" relative="1" as="geometry">
            <mxPoint x="-73" as="offset" />
          </mxGeometry>
        </mxCell>
        <mxCell id="mpPiCZ5xlvJnR0Xn32ME-53" style="edgeStyle=orthogonalEdgeStyle;rounded=0;orthogonalLoop=1;jettySize=auto;html=1;entryX=0;entryY=0.5;entryDx=0;entryDy=0;entryPerimeter=0;" edge="1" parent="1" source="mpPiCZ5xlvJnR0Xn32ME-7" target="mpPiCZ5xlvJnR0Xn32ME-46">
          <mxGeometry relative="1" as="geometry" />
        </mxCell>
        <mxCell id="mpPiCZ5xlvJnR0Xn32ME-54" value="`\theta`" style="edgeLabel;html=1;align=center;verticalAlign=middle;resizable=0;points=[];" vertex="1" connectable="0" parent="mpPiCZ5xlvJnR0Xn32ME-53">
          <mxGeometry x="-0.1677" y="1" relative="1" as="geometry">
            <mxPoint as="offset" />
          </mxGeometry>
        </mxCell>
        <mxCell id="mpPiCZ5xlvJnR0Xn32ME-59" value="`+`" style="text;html=1;align=center;verticalAlign=middle;whiteSpace=wrap;rounded=0;" vertex="1" parent="1">
          <mxGeometry x="270" y="500" width="20" height="20" as="geometry" />
        </mxCell>
        <mxCell id="mpPiCZ5xlvJnR0Xn32ME-60" value="`-`" style="text;html=1;align=center;verticalAlign=middle;whiteSpace=wrap;rounded=0;" vertex="1" parent="1">
          <mxGeometry x="260" y="490" width="20" height="20" as="geometry" />
        </mxCell>
        <mxCell id="mpPiCZ5xlvJnR0Xn32ME-61" value="`-`" style="text;html=1;align=center;verticalAlign=middle;whiteSpace=wrap;rounded=0;" vertex="1" parent="1">
          <mxGeometry x="260" y="670" width="20" height="20" as="geometry" />
        </mxCell>
        <mxCell id="mpPiCZ5xlvJnR0Xn32ME-62" value="`-`" style="text;html=1;align=center;verticalAlign=middle;whiteSpace=wrap;rounded=0;" vertex="1" parent="1">
          <mxGeometry x="370" y="590" width="20" height="20" as="geometry" />
        </mxCell>
        <mxCell id="mpPiCZ5xlvJnR0Xn32ME-63" value="`+`" style="text;html=1;align=center;verticalAlign=middle;whiteSpace=wrap;rounded=0;" vertex="1" parent="1">
          <mxGeometry x="270" y="660" width="20" height="20" as="geometry" />
        </mxCell>
        <mxCell id="mpPiCZ5xlvJnR0Xn32ME-66" value="`+`" style="text;html=1;align=center;verticalAlign=middle;whiteSpace=wrap;rounded=0;" vertex="1" parent="1">
          <mxGeometry x="370" y="570" width="20" height="20" as="geometry" />
        </mxCell>
        <mxCell id="mpPiCZ5xlvJnR0Xn32ME-67" value="`+`" style="text;html=1;align=center;verticalAlign=middle;whiteSpace=wrap;rounded=0;" vertex="1" parent="1">
          <mxGeometry x="360" y="580" width="20" height="20" as="geometry" />
        </mxCell>
        <mxCell id="mpPiCZ5xlvJnR0Xn32ME-68" value="`+`" style="text;html=1;align=center;verticalAlign=middle;whiteSpace=wrap;rounded=0;" vertex="1" parent="1">
          <mxGeometry x="450" y="570" width="20" height="20" as="geometry" />
        </mxCell>
        <mxCell id="mpPiCZ5xlvJnR0Xn32ME-69" value="`+`" style="text;html=1;align=center;verticalAlign=middle;whiteSpace=wrap;rounded=0;" vertex="1" parent="1">
          <mxGeometry x="450" y="590" width="20" height="20" as="geometry" />
        </mxCell>
        <mxCell id="mpPiCZ5xlvJnR0Xn32ME-70" value="`+`" style="text;html=1;align=center;verticalAlign=middle;whiteSpace=wrap;rounded=0;" vertex="1" parent="1">
          <mxGeometry x="620" y="520" width="20" height="20" as="geometry" />
        </mxCell>
        <mxCell id="mpPiCZ5xlvJnR0Xn32ME-71" value="`+`" style="text;html=1;align=center;verticalAlign=middle;whiteSpace=wrap;rounded=0;" vertex="1" parent="1">
          <mxGeometry x="620" y="640" width="20" height="20" as="geometry" />
        </mxCell>
        <mxCell id="mpPiCZ5xlvJnR0Xn32ME-72" value="`+`" style="text;html=1;align=center;verticalAlign=middle;whiteSpace=wrap;rounded=0;" vertex="1" parent="1">
          <mxGeometry x="650" y="340" width="20" height="20" as="geometry" />
        </mxCell>
        <mxCell id="mpPiCZ5xlvJnR0Xn32ME-74" value="`-`" style="text;html=1;align=center;verticalAlign=middle;whiteSpace=wrap;rounded=0;" vertex="1" parent="1">
          <mxGeometry x="640" y="350" width="20" height="20" as="geometry" />
        </mxCell>
        <mxCell id="mpPiCZ5xlvJnR0Xn32ME-75" value="`-`" style="text;html=1;align=center;verticalAlign=middle;whiteSpace=wrap;rounded=0;" vertex="1" parent="1">
          <mxGeometry x="630" y="510" width="20" height="20" as="geometry" />
        </mxCell>
        <mxCell id="mpPiCZ5xlvJnR0Xn32ME-76" value="`-`" style="text;html=1;align=center;verticalAlign=middle;whiteSpace=wrap;rounded=0;" vertex="1" parent="1">
          <mxGeometry x="630" y="650" width="20" height="20" as="geometry" />
        </mxCell>
      </root>
    </mxGraphModel>
  </diagram>
  <diagram name="multi-agent" id="5X3l50zbkIgTA2gIW1Re">
    <mxGraphModel dx="1937" dy="1383" grid="1" gridSize="10" guides="1" tooltips="1" connect="1" arrows="1" fold="1" page="1" pageScale="1" pageWidth="1100" pageHeight="850" math="1" shadow="0">
      <root>
        <mxCell id="IHCGl6r4kFkxUqH40hnX-0" />
        <mxCell id="IHCGl6r4kFkxUqH40hnX-1" parent="IHCGl6r4kFkxUqH40hnX-0" />
        <mxCell id="gUQUB_aHqahPkXjqELlY-0" value="" style="rounded=1;whiteSpace=wrap;html=1;fillColor=#f8cecc;strokeColor=#b85450;arcSize=4;fontStyle=1" parent="IHCGl6r4kFkxUqH40hnX-1" vertex="1">
          <mxGeometry x="600" y="720" width="480" height="220" as="geometry" />
        </mxCell>
        <mxCell id="gUQUB_aHqahPkXjqELlY-2" value="" style="rounded=1;whiteSpace=wrap;html=1;fillColor=#d5e8d4;strokeColor=#82b366;arcSize=3;fontStyle=1" parent="IHCGl6r4kFkxUqH40hnX-1" vertex="1">
          <mxGeometry x="460" y="960" width="660" height="290" as="geometry" />
        </mxCell>
        <mxCell id="gUQUB_aHqahPkXjqELlY-3" style="edgeStyle=orthogonalEdgeStyle;rounded=0;orthogonalLoop=1;jettySize=auto;html=1;entryX=0;entryY=0.5;entryDx=0;entryDy=0;fontStyle=1" parent="IHCGl6r4kFkxUqH40hnX-1" source="gUQUB_aHqahPkXjqELlY-7" target="gUQUB_aHqahPkXjqELlY-8" edge="1">
          <mxGeometry relative="1" as="geometry" />
        </mxCell>
        <mxCell id="gUQUB_aHqahPkXjqELlY-4" value="`v_{cmd}`" style="edgeLabel;html=1;align=center;verticalAlign=middle;resizable=0;points=[];fontStyle=1" parent="gUQUB_aHqahPkXjqELlY-3" vertex="1" connectable="0">
          <mxGeometry x="-0.0667" y="-2" relative="1" as="geometry">
            <mxPoint x="2" y="8" as="offset" />
          </mxGeometry>
        </mxCell>
        <mxCell id="gUQUB_aHqahPkXjqELlY-5" style="edgeStyle=orthogonalEdgeStyle;rounded=0;orthogonalLoop=1;jettySize=auto;html=1;entryX=0.5;entryY=1;entryDx=0;entryDy=0;fontStyle=1" parent="IHCGl6r4kFkxUqH40hnX-1" source="gUQUB_aHqahPkXjqELlY-7" target="gUQUB_aHqahPkXjqELlY-55" edge="1">
          <mxGeometry relative="1" as="geometry">
            <Array as="points">
              <mxPoint x="510" y="1000" />
              <mxPoint x="650" y="1000" />
            </Array>
          </mxGeometry>
        </mxCell>
        <mxCell id="gUQUB_aHqahPkXjqELlY-6" value="`\text{Covariance}`" style="edgeLabel;html=1;align=center;verticalAlign=middle;resizable=0;points=[];fontStyle=1" parent="gUQUB_aHqahPkXjqELlY-5" vertex="1" connectable="0">
          <mxGeometry x="-0.424" y="-3" relative="1" as="geometry">
            <mxPoint y="-3" as="offset" />
          </mxGeometry>
        </mxCell>
        <mxCell id="gUQUB_aHqahPkXjqELlY-7" value="&lt;font style=&quot;font-size: 10px;&quot;&gt;Nav2&lt;/font&gt;" style="rounded=0;whiteSpace=wrap;html=1;fontStyle=1" parent="IHCGl6r4kFkxUqH40hnX-1" vertex="1">
          <mxGeometry x="470" y="1030" width="80" height="40" as="geometry" />
        </mxCell>
        <mxCell id="gUQUB_aHqahPkXjqELlY-8" value="&lt;font style=&quot;font-size: 10px;&quot;&gt;Robot Inverse Kinematics&lt;/font&gt;" style="rounded=0;whiteSpace=wrap;html=1;fontStyle=1" parent="IHCGl6r4kFkxUqH40hnX-1" vertex="1">
          <mxGeometry x="610" y="1060" width="80" height="40" as="geometry" />
        </mxCell>
        <mxCell id="gUQUB_aHqahPkXjqELlY-9" style="edgeStyle=orthogonalEdgeStyle;rounded=0;orthogonalLoop=1;jettySize=auto;html=1;entryX=0;entryY=0.5;entryDx=0;entryDy=0;fontStyle=1" parent="IHCGl6r4kFkxUqH40hnX-1" source="gUQUB_aHqahPkXjqELlY-11" target="gUQUB_aHqahPkXjqELlY-19" edge="1">
          <mxGeometry relative="1" as="geometry" />
        </mxCell>
        <mxCell id="gUQUB_aHqahPkXjqELlY-10" value="`\text{PWM}`" style="edgeLabel;html=1;align=center;verticalAlign=middle;resizable=0;points=[];fontStyle=1" parent="gUQUB_aHqahPkXjqELlY-9" vertex="1" connectable="0">
          <mxGeometry x="-0.3524" relative="1" as="geometry">
            <mxPoint x="11" as="offset" />
          </mxGeometry>
        </mxCell>
        <mxCell id="gUQUB_aHqahPkXjqELlY-11" value="&lt;font style=&quot;font-size: 10px;&quot;&gt;PID (Left)&lt;/font&gt;" style="rounded=0;whiteSpace=wrap;html=1;fontStyle=1" parent="IHCGl6r4kFkxUqH40hnX-1" vertex="1">
          <mxGeometry x="850" y="1030" width="80" height="40" as="geometry" />
        </mxCell>
        <mxCell id="gUQUB_aHqahPkXjqELlY-12" style="edgeStyle=orthogonalEdgeStyle;rounded=0;orthogonalLoop=1;jettySize=auto;html=1;entryX=0;entryY=0.5;entryDx=0;entryDy=0;fontStyle=1" parent="IHCGl6r4kFkxUqH40hnX-1" source="gUQUB_aHqahPkXjqELlY-14" target="gUQUB_aHqahPkXjqELlY-11" edge="1">
          <mxGeometry relative="1" as="geometry" />
        </mxCell>
        <mxCell id="gUQUB_aHqahPkXjqELlY-13" value="`v_{\text{error}}`" style="edgeLabel;html=1;align=center;verticalAlign=middle;resizable=0;points=[];fontStyle=1" parent="gUQUB_aHqahPkXjqELlY-12" vertex="1" connectable="0">
          <mxGeometry x="-0.181" y="-3" relative="1" as="geometry">
            <mxPoint x="5" y="-3" as="offset" />
          </mxGeometry>
        </mxCell>
        <mxCell id="gUQUB_aHqahPkXjqELlY-14" value="" style="verticalLabelPosition=bottom;verticalAlign=top;html=1;shape=mxgraph.flowchart.or;fontStyle=1" parent="IHCGl6r4kFkxUqH40hnX-1" vertex="1">
          <mxGeometry x="750" y="1030" width="40" height="40" as="geometry" />
        </mxCell>
        <mxCell id="gUQUB_aHqahPkXjqELlY-15" style="edgeStyle=orthogonalEdgeStyle;rounded=0;orthogonalLoop=1;jettySize=auto;html=1;entryX=0;entryY=0.5;entryDx=0;entryDy=0;fontStyle=1" parent="IHCGl6r4kFkxUqH40hnX-1" source="gUQUB_aHqahPkXjqELlY-17" target="gUQUB_aHqahPkXjqELlY-27" edge="1">
          <mxGeometry relative="1" as="geometry" />
        </mxCell>
        <mxCell id="gUQUB_aHqahPkXjqELlY-16" value="`v_{\text{error}}`" style="edgeLabel;html=1;align=center;verticalAlign=middle;resizable=0;points=[];fontStyle=1" parent="gUQUB_aHqahPkXjqELlY-15" vertex="1" connectable="0">
          <mxGeometry x="0.1619" y="-1" relative="1" as="geometry">
            <mxPoint x="-5" y="-1" as="offset" />
          </mxGeometry>
        </mxCell>
        <mxCell id="gUQUB_aHqahPkXjqELlY-17" value="" style="verticalLabelPosition=bottom;verticalAlign=top;html=1;shape=mxgraph.flowchart.or;fontStyle=1" parent="IHCGl6r4kFkxUqH40hnX-1" vertex="1">
          <mxGeometry x="750" y="1090" width="40" height="40" as="geometry" />
        </mxCell>
        <mxCell id="gUQUB_aHqahPkXjqELlY-18" style="edgeStyle=orthogonalEdgeStyle;rounded=0;orthogonalLoop=1;jettySize=auto;html=1;entryX=0.5;entryY=1;entryDx=0;entryDy=0;fontStyle=1" parent="IHCGl6r4kFkxUqH40hnX-1" source="gUQUB_aHqahPkXjqELlY-19" target="gUQUB_aHqahPkXjqELlY-24" edge="1">
          <mxGeometry relative="1" as="geometry" />
        </mxCell>
        <mxCell id="gUQUB_aHqahPkXjqELlY-19" value="&lt;span style=&quot;font-size: 10px;&quot;&gt;Drive Motors (Left)&lt;/span&gt;" style="rounded=0;whiteSpace=wrap;html=1;fontStyle=1" parent="IHCGl6r4kFkxUqH40hnX-1" vertex="1">
          <mxGeometry x="990" y="1030" width="80" height="40" as="geometry" />
        </mxCell>
        <mxCell id="gUQUB_aHqahPkXjqELlY-20" style="edgeStyle=orthogonalEdgeStyle;rounded=0;orthogonalLoop=1;jettySize=auto;html=1;entryX=1;entryY=0.5;entryDx=0;entryDy=0;exitX=0;exitY=0.5;exitDx=0;exitDy=0;fontStyle=1" parent="IHCGl6r4kFkxUqH40hnX-1" source="gUQUB_aHqahPkXjqELlY-24" target="gUQUB_aHqahPkXjqELlY-35" edge="1">
          <mxGeometry relative="1" as="geometry" />
        </mxCell>
        <mxCell id="gUQUB_aHqahPkXjqELlY-21" value="`\theta_{\text{estimated}}`" style="edgeLabel;html=1;align=center;verticalAlign=middle;resizable=0;points=[];fontStyle=1" parent="gUQUB_aHqahPkXjqELlY-20" vertex="1" connectable="0">
          <mxGeometry x="0.04" y="4" relative="1" as="geometry">
            <mxPoint x="12" y="-4" as="offset" />
          </mxGeometry>
        </mxCell>
        <mxCell id="gUQUB_aHqahPkXjqELlY-22" style="edgeStyle=orthogonalEdgeStyle;rounded=0;orthogonalLoop=1;jettySize=auto;html=1;entryX=1;entryY=0.75;entryDx=0;entryDy=0;exitX=1;exitY=0.5;exitDx=0;exitDy=0;fontStyle=1" parent="IHCGl6r4kFkxUqH40hnX-1" source="gUQUB_aHqahPkXjqELlY-24" target="gUQUB_aHqahPkXjqELlY-42" edge="1">
          <mxGeometry relative="1" as="geometry">
            <Array as="points">
              <mxPoint x="1110" y="990" />
              <mxPoint x="1110" y="1230" />
              <mxPoint x="690" y="1230" />
            </Array>
          </mxGeometry>
        </mxCell>
        <mxCell id="gUQUB_aHqahPkXjqELlY-23" value="`\theta_{\text{estimated, right}} \text{(Joint Space)}`" style="edgeLabel;html=1;align=center;verticalAlign=middle;resizable=0;points=[];fontStyle=1" parent="gUQUB_aHqahPkXjqELlY-22" vertex="1" connectable="0">
          <mxGeometry x="0.1993" y="4" relative="1" as="geometry">
            <mxPoint x="-80" y="-4" as="offset" />
          </mxGeometry>
        </mxCell>
        <mxCell id="gUQUB_aHqahPkXjqELlY-24" value="&lt;span style=&quot;font-size: 10px;&quot;&gt;Encoder (Left)&lt;/span&gt;" style="rounded=0;whiteSpace=wrap;html=1;fillColor=#f5f5f5;strokeColor=#666666;fontStyle=1;fillStyle=auto;fontColor=#333333;" parent="IHCGl6r4kFkxUqH40hnX-1" vertex="1">
          <mxGeometry x="990" y="970" width="80" height="40" as="geometry" />
        </mxCell>
        <mxCell id="gUQUB_aHqahPkXjqELlY-25" style="edgeStyle=orthogonalEdgeStyle;rounded=0;orthogonalLoop=1;jettySize=auto;html=1;entryX=0;entryY=0.5;entryDx=0;entryDy=0;fontStyle=1" parent="IHCGl6r4kFkxUqH40hnX-1" source="gUQUB_aHqahPkXjqELlY-27" target="gUQUB_aHqahPkXjqELlY-29" edge="1">
          <mxGeometry relative="1" as="geometry" />
        </mxCell>
        <mxCell id="gUQUB_aHqahPkXjqELlY-26" value="`\text{PWM}`" style="edgeLabel;html=1;align=center;verticalAlign=middle;resizable=0;points=[];fontStyle=1" parent="gUQUB_aHqahPkXjqELlY-25" vertex="1" connectable="0">
          <mxGeometry x="-0.219" y="-1" relative="1" as="geometry">
            <mxPoint x="7" y="-1" as="offset" />
          </mxGeometry>
        </mxCell>
        <mxCell id="gUQUB_aHqahPkXjqELlY-27" value="&lt;font style=&quot;font-size: 10px;&quot;&gt;PID (Right)&lt;/font&gt;" style="rounded=0;whiteSpace=wrap;html=1;fontStyle=1" parent="IHCGl6r4kFkxUqH40hnX-1" vertex="1">
          <mxGeometry x="850" y="1090" width="80" height="40" as="geometry" />
        </mxCell>
        <mxCell id="gUQUB_aHqahPkXjqELlY-28" style="edgeStyle=orthogonalEdgeStyle;rounded=0;orthogonalLoop=1;jettySize=auto;html=1;entryX=0.5;entryY=0;entryDx=0;entryDy=0;fontStyle=1" parent="IHCGl6r4kFkxUqH40hnX-1" source="gUQUB_aHqahPkXjqELlY-29" target="gUQUB_aHqahPkXjqELlY-33" edge="1">
          <mxGeometry relative="1" as="geometry" />
        </mxCell>
        <mxCell id="gUQUB_aHqahPkXjqELlY-29" value="&lt;span style=&quot;font-size: 10px;&quot;&gt;Drive Motors (Right)&lt;/span&gt;" style="rounded=0;whiteSpace=wrap;html=1;fontStyle=1" parent="IHCGl6r4kFkxUqH40hnX-1" vertex="1">
          <mxGeometry x="990" y="1090" width="80" height="40" as="geometry" />
        </mxCell>
        <mxCell id="gUQUB_aHqahPkXjqELlY-30" style="edgeStyle=orthogonalEdgeStyle;rounded=0;orthogonalLoop=1;jettySize=auto;html=1;entryX=1;entryY=0.5;entryDx=0;entryDy=0;exitX=0;exitY=0.5;exitDx=0;exitDy=0;fontStyle=1" parent="IHCGl6r4kFkxUqH40hnX-1" source="gUQUB_aHqahPkXjqELlY-33" target="gUQUB_aHqahPkXjqELlY-34" edge="1">
          <mxGeometry relative="1" as="geometry" />
        </mxCell>
        <mxCell id="gUQUB_aHqahPkXjqELlY-31" value="`\theta_{\text{estimated}}`" style="edgeLabel;html=1;align=center;verticalAlign=middle;resizable=0;points=[];fontStyle=1" parent="gUQUB_aHqahPkXjqELlY-30" vertex="1" connectable="0">
          <mxGeometry x="0.0857" y="1" relative="1" as="geometry">
            <mxPoint x="14" y="-1" as="offset" />
          </mxGeometry>
        </mxCell>
        <mxCell id="gUQUB_aHqahPkXjqELlY-32" style="edgeStyle=orthogonalEdgeStyle;rounded=0;orthogonalLoop=1;jettySize=auto;html=1;exitX=1;exitY=0.5;exitDx=0;exitDy=0;entryX=1;entryY=0.25;entryDx=0;entryDy=0;fontStyle=1" parent="IHCGl6r4kFkxUqH40hnX-1" source="gUQUB_aHqahPkXjqELlY-33" target="gUQUB_aHqahPkXjqELlY-42" edge="1">
          <mxGeometry relative="1" as="geometry">
            <mxPoint x="640" y="1200" as="targetPoint" />
            <Array as="points">
              <mxPoint x="1090" y="1170" />
              <mxPoint x="1090" y="1210" />
              <mxPoint x="690" y="1210" />
            </Array>
          </mxGeometry>
        </mxCell>
        <mxCell id="gUQUB_aHqahPkXjqELlY-33" value="&lt;span style=&quot;font-size: 10px;&quot;&gt;Encoder (Left)&lt;/span&gt;" style="rounded=0;whiteSpace=wrap;html=1;fillColor=#f5f5f5;strokeColor=#666666;fontStyle=1;fillStyle=auto;fontColor=#333333;" parent="IHCGl6r4kFkxUqH40hnX-1" vertex="1">
          <mxGeometry x="990" y="1150" width="80" height="40" as="geometry" />
        </mxCell>
        <mxCell id="gUQUB_aHqahPkXjqELlY-34" value="&lt;span style=&quot;font-size: 10px;&quot;&gt;`\frac{d}{dt}`&lt;/span&gt;" style="rounded=0;whiteSpace=wrap;html=1;fontStyle=1" parent="IHCGl6r4kFkxUqH40hnX-1" vertex="1">
          <mxGeometry x="850" y="1150" width="40" height="40" as="geometry" />
        </mxCell>
        <mxCell id="gUQUB_aHqahPkXjqELlY-35" value="&lt;span style=&quot;font-size: 10px;&quot;&gt;`\frac{d}{dt}`&lt;/span&gt;" style="rounded=0;whiteSpace=wrap;html=1;fontStyle=1" parent="IHCGl6r4kFkxUqH40hnX-1" vertex="1">
          <mxGeometry x="850" y="970" width="40" height="40" as="geometry" />
        </mxCell>
        <mxCell id="gUQUB_aHqahPkXjqELlY-36" style="edgeStyle=orthogonalEdgeStyle;rounded=0;orthogonalLoop=1;jettySize=auto;html=1;entryX=0.5;entryY=0;entryDx=0;entryDy=0;entryPerimeter=0;fontStyle=1" parent="IHCGl6r4kFkxUqH40hnX-1" source="gUQUB_aHqahPkXjqELlY-35" target="gUQUB_aHqahPkXjqELlY-14" edge="1">
          <mxGeometry relative="1" as="geometry" />
        </mxCell>
        <mxCell id="gUQUB_aHqahPkXjqELlY-37" value="`v_{\text{estimated}}`" style="edgeLabel;html=1;align=center;verticalAlign=middle;resizable=0;points=[];fontStyle=1" parent="gUQUB_aHqahPkXjqELlY-36" vertex="1" connectable="0">
          <mxGeometry x="-0.2951" y="2" relative="1" as="geometry">
            <mxPoint y="-2" as="offset" />
          </mxGeometry>
        </mxCell>
        <mxCell id="gUQUB_aHqahPkXjqELlY-38" style="edgeStyle=orthogonalEdgeStyle;rounded=0;orthogonalLoop=1;jettySize=auto;html=1;entryX=0.5;entryY=1;entryDx=0;entryDy=0;entryPerimeter=0;fontStyle=1" parent="IHCGl6r4kFkxUqH40hnX-1" source="gUQUB_aHqahPkXjqELlY-34" target="gUQUB_aHqahPkXjqELlY-17" edge="1">
          <mxGeometry relative="1" as="geometry" />
        </mxCell>
        <mxCell id="gUQUB_aHqahPkXjqELlY-39" value="`v_{\text{estimated}}`" style="edgeLabel;html=1;align=center;verticalAlign=middle;resizable=0;points=[];fontStyle=1" parent="gUQUB_aHqahPkXjqELlY-38" vertex="1" connectable="0">
          <mxGeometry x="-0.1431" y="1" relative="1" as="geometry">
            <mxPoint x="11" y="-1" as="offset" />
          </mxGeometry>
        </mxCell>
        <mxCell id="gUQUB_aHqahPkXjqELlY-40" style="edgeStyle=orthogonalEdgeStyle;rounded=0;orthogonalLoop=1;jettySize=auto;html=1;entryX=0.75;entryY=1;entryDx=0;entryDy=0;exitX=0.5;exitY=0;exitDx=0;exitDy=0;fontStyle=1" parent="IHCGl6r4kFkxUqH40hnX-1" source="gUQUB_aHqahPkXjqELlY-42" target="gUQUB_aHqahPkXjqELlY-88" edge="1">
          <mxGeometry relative="1" as="geometry" />
        </mxCell>
        <mxCell id="gUQUB_aHqahPkXjqELlY-41" value="`\text{Pose}_{\text{wheel}}`" style="edgeLabel;html=1;align=center;verticalAlign=middle;resizable=0;points=[];fontStyle=1" parent="gUQUB_aHqahPkXjqELlY-40" vertex="1" connectable="0">
          <mxGeometry x="0.4638" y="-1" relative="1" as="geometry">
            <mxPoint x="39" y="1" as="offset" />
          </mxGeometry>
        </mxCell>
        <mxCell id="gUQUB_aHqahPkXjqELlY-42" value="&lt;font style=&quot;font-size: 10px;&quot;&gt;Robot Forward Kinematics&lt;/font&gt;" style="rounded=0;whiteSpace=wrap;html=1;fontStyle=1" parent="IHCGl6r4kFkxUqH40hnX-1" vertex="1">
          <mxGeometry x="610" y="1200" width="80" height="40" as="geometry" />
        </mxCell>
        <mxCell id="gUQUB_aHqahPkXjqELlY-43" style="edgeStyle=orthogonalEdgeStyle;rounded=0;orthogonalLoop=1;jettySize=auto;html=1;entryX=0;entryY=0.5;entryDx=0;entryDy=0;entryPerimeter=0;exitX=0.5;exitY=0;exitDx=0;exitDy=0;fontStyle=1" parent="IHCGl6r4kFkxUqH40hnX-1" source="gUQUB_aHqahPkXjqELlY-8" target="gUQUB_aHqahPkXjqELlY-14" edge="1">
          <mxGeometry relative="1" as="geometry">
            <Array as="points">
              <mxPoint x="650" y="1050" />
            </Array>
          </mxGeometry>
        </mxCell>
        <mxCell id="gUQUB_aHqahPkXjqELlY-44" value="`v_{desired}`" style="edgeLabel;html=1;align=center;verticalAlign=middle;resizable=0;points=[];fontStyle=1" parent="gUQUB_aHqahPkXjqELlY-43" vertex="1" connectable="0">
          <mxGeometry x="0.0762" y="1" relative="1" as="geometry">
            <mxPoint x="11" y="1" as="offset" />
          </mxGeometry>
        </mxCell>
        <mxCell id="gUQUB_aHqahPkXjqELlY-45" style="edgeStyle=orthogonalEdgeStyle;rounded=0;orthogonalLoop=1;jettySize=auto;html=1;entryX=0;entryY=0.5;entryDx=0;entryDy=0;entryPerimeter=0;exitX=0.5;exitY=1;exitDx=0;exitDy=0;fontStyle=1" parent="IHCGl6r4kFkxUqH40hnX-1" source="gUQUB_aHqahPkXjqELlY-8" target="gUQUB_aHqahPkXjqELlY-17" edge="1">
          <mxGeometry relative="1" as="geometry">
            <Array as="points">
              <mxPoint x="650" y="1110" />
            </Array>
          </mxGeometry>
        </mxCell>
        <mxCell id="gUQUB_aHqahPkXjqELlY-46" value="`v_{desired}`" style="edgeLabel;html=1;align=center;verticalAlign=middle;resizable=0;points=[];fontStyle=1" parent="gUQUB_aHqahPkXjqELlY-45" vertex="1" connectable="0">
          <mxGeometry x="0.2521" relative="1" as="geometry">
            <mxPoint as="offset" />
          </mxGeometry>
        </mxCell>
        <mxCell id="gUQUB_aHqahPkXjqELlY-47" style="edgeStyle=orthogonalEdgeStyle;rounded=0;orthogonalLoop=1;jettySize=auto;html=1;exitX=0.25;exitY=0;exitDx=0;exitDy=0;entryX=0.25;entryY=1;entryDx=0;entryDy=0;fontStyle=1" parent="IHCGl6r4kFkxUqH40hnX-1" source="gUQUB_aHqahPkXjqELlY-89" target="gUQUB_aHqahPkXjqELlY-88" edge="1">
          <mxGeometry relative="1" as="geometry" />
        </mxCell>
        <mxCell id="gUQUB_aHqahPkXjqELlY-48" value="`\text{Pose}_{\text{IMU}}`" style="edgeLabel;html=1;align=center;verticalAlign=middle;resizable=0;points=[];fontStyle=1" parent="gUQUB_aHqahPkXjqELlY-47" vertex="1" connectable="0">
          <mxGeometry x="-0.1917" relative="1" as="geometry">
            <mxPoint x="1" y="-4" as="offset" />
          </mxGeometry>
        </mxCell>
        <mxCell id="gUQUB_aHqahPkXjqELlY-49" style="edgeStyle=orthogonalEdgeStyle;rounded=0;orthogonalLoop=1;jettySize=auto;html=1;entryX=0;entryY=0.5;entryDx=0;entryDy=0;fontStyle=1" parent="IHCGl6r4kFkxUqH40hnX-1" source="gUQUB_aHqahPkXjqELlY-55" target="gUQUB_aHqahPkXjqELlY-56" edge="1">
          <mxGeometry relative="1" as="geometry" />
        </mxCell>
        <mxCell id="gUQUB_aHqahPkXjqELlY-50" value="`\mathbf{D}`" style="edgeLabel;html=1;align=center;verticalAlign=middle;resizable=0;points=[];fontStyle=1" parent="gUQUB_aHqahPkXjqELlY-49" vertex="1" connectable="0">
          <mxGeometry x="-0.0567" relative="1" as="geometry">
            <mxPoint as="offset" />
          </mxGeometry>
        </mxCell>
        <mxCell id="gUQUB_aHqahPkXjqELlY-51" style="edgeStyle=orthogonalEdgeStyle;rounded=0;orthogonalLoop=1;jettySize=auto;html=1;exitX=1;exitY=0.25;exitDx=0;exitDy=0;entryX=0;entryY=0.25;entryDx=0;entryDy=0;fontStyle=1" parent="IHCGl6r4kFkxUqH40hnX-1" source="gUQUB_aHqahPkXjqELlY-55" target="gUQUB_aHqahPkXjqELlY-56" edge="1">
          <mxGeometry relative="1" as="geometry" />
        </mxCell>
        <mxCell id="gUQUB_aHqahPkXjqELlY-52" value="`\mathbf{K}`" style="edgeLabel;html=1;align=center;verticalAlign=middle;resizable=0;points=[];fontStyle=1" parent="gUQUB_aHqahPkXjqELlY-51" vertex="1" connectable="0">
          <mxGeometry x="-0.0905" relative="1" as="geometry">
            <mxPoint as="offset" />
          </mxGeometry>
        </mxCell>
        <mxCell id="gUQUB_aHqahPkXjqELlY-53" style="edgeStyle=orthogonalEdgeStyle;rounded=0;orthogonalLoop=1;jettySize=auto;html=1;exitX=1;exitY=0.75;exitDx=0;exitDy=0;entryX=0;entryY=0.75;entryDx=0;entryDy=0;fontStyle=1" parent="IHCGl6r4kFkxUqH40hnX-1" source="gUQUB_aHqahPkXjqELlY-55" target="gUQUB_aHqahPkXjqELlY-56" edge="1">
          <mxGeometry relative="1" as="geometry" />
        </mxCell>
        <mxCell id="gUQUB_aHqahPkXjqELlY-54" value="`\mathbf{M}`" style="edgeLabel;html=1;align=center;verticalAlign=middle;resizable=0;points=[];fontStyle=1" parent="gUQUB_aHqahPkXjqELlY-53" vertex="1" connectable="0">
          <mxGeometry x="0.1655" y="-1" relative="1" as="geometry">
            <mxPoint x="-5" y="-1" as="offset" />
          </mxGeometry>
        </mxCell>
        <mxCell id="gUQUB_aHqahPkXjqELlY-55" value="&lt;font style=&quot;font-size: 10px;&quot;&gt;Parameterization&lt;/font&gt;&lt;div&gt;&lt;font style=&quot;font-size: 10px;&quot;&gt;Node&lt;/font&gt;&lt;/div&gt;" style="rounded=0;whiteSpace=wrap;html=1;fontStyle=1" parent="IHCGl6r4kFkxUqH40hnX-1" vertex="1">
          <mxGeometry x="610" y="750" width="80" height="80" as="geometry" />
        </mxCell>
        <mxCell id="gUQUB_aHqahPkXjqELlY-56" value="&lt;span style=&quot;font-size: 10px;&quot;&gt;Admittance Controller&lt;/span&gt;" style="rounded=0;whiteSpace=wrap;html=1;fontStyle=1" parent="IHCGl6r4kFkxUqH40hnX-1" vertex="1">
          <mxGeometry x="750" y="750" width="80" height="80" as="geometry" />
        </mxCell>
        <mxCell id="gUQUB_aHqahPkXjqELlY-57" style="edgeStyle=orthogonalEdgeStyle;rounded=0;orthogonalLoop=1;jettySize=auto;html=1;entryX=0.5;entryY=0;entryDx=0;entryDy=0;fontStyle=1" parent="IHCGl6r4kFkxUqH40hnX-1" source="gUQUB_aHqahPkXjqELlY-59" target="gUQUB_aHqahPkXjqELlY-69" edge="1">
          <mxGeometry relative="1" as="geometry" />
        </mxCell>
        <mxCell id="gUQUB_aHqahPkXjqELlY-58" value="`\mathbf{\theta}_{\text{desired}}`" style="edgeLabel;html=1;align=center;verticalAlign=middle;resizable=0;points=[];fontStyle=1" parent="gUQUB_aHqahPkXjqELlY-57" vertex="1" connectable="0">
          <mxGeometry x="0.64" relative="1" as="geometry">
            <mxPoint y="-11" as="offset" />
          </mxGeometry>
        </mxCell>
        <mxCell id="gUQUB_aHqahPkXjqELlY-59" value="&lt;span style=&quot;font-size: 10px;&quot;&gt;Inverse Kinematics&lt;/span&gt;" style="rounded=0;whiteSpace=wrap;html=1;fontStyle=1" parent="IHCGl6r4kFkxUqH40hnX-1" vertex="1">
          <mxGeometry x="990" y="750" width="80" height="40" as="geometry" />
        </mxCell>
        <mxCell id="gUQUB_aHqahPkXjqELlY-60" value="" style="verticalLabelPosition=bottom;verticalAlign=top;html=1;shape=mxgraph.flowchart.or;fontStyle=1" parent="IHCGl6r4kFkxUqH40hnX-1" vertex="1">
          <mxGeometry x="890" y="750" width="40" height="40" as="geometry" />
        </mxCell>
        <mxCell id="gUQUB_aHqahPkXjqELlY-61" style="edgeStyle=orthogonalEdgeStyle;rounded=0;orthogonalLoop=1;jettySize=auto;html=1;entryX=0.5;entryY=0;entryDx=0;entryDy=0;entryPerimeter=0;exitX=0.5;exitY=0;exitDx=0;exitDy=0;fontStyle=1" parent="IHCGl6r4kFkxUqH40hnX-1" source="gUQUB_aHqahPkXjqELlY-55" target="gUQUB_aHqahPkXjqELlY-60" edge="1">
          <mxGeometry relative="1" as="geometry">
            <Array as="points">
              <mxPoint x="650" y="730" />
              <mxPoint x="910" y="730" />
            </Array>
          </mxGeometry>
        </mxCell>
        <mxCell id="gUQUB_aHqahPkXjqELlY-62" value="`x_{\text{virtual}}`" style="edgeLabel;html=1;align=center;verticalAlign=middle;resizable=0;points=[];fontStyle=1" parent="gUQUB_aHqahPkXjqELlY-61" vertex="1" connectable="0">
          <mxGeometry x="0.0067" y="-1" relative="1" as="geometry">
            <mxPoint x="-1" y="-1" as="offset" />
          </mxGeometry>
        </mxCell>
        <mxCell id="gUQUB_aHqahPkXjqELlY-63" style="edgeStyle=orthogonalEdgeStyle;rounded=0;orthogonalLoop=1;jettySize=auto;html=1;entryX=0;entryY=0.5;entryDx=0;entryDy=0;entryPerimeter=0;exitX=1;exitY=0.25;exitDx=0;exitDy=0;fontStyle=1" parent="IHCGl6r4kFkxUqH40hnX-1" source="gUQUB_aHqahPkXjqELlY-56" target="gUQUB_aHqahPkXjqELlY-60" edge="1">
          <mxGeometry relative="1" as="geometry" />
        </mxCell>
        <mxCell id="gUQUB_aHqahPkXjqELlY-64" value="`\Delta x`" style="edgeLabel;html=1;align=center;verticalAlign=middle;resizable=0;points=[];fontStyle=1" parent="gUQUB_aHqahPkXjqELlY-63" vertex="1" connectable="0">
          <mxGeometry relative="1" as="geometry">
            <mxPoint as="offset" />
          </mxGeometry>
        </mxCell>
        <mxCell id="gUQUB_aHqahPkXjqELlY-65" style="edgeStyle=orthogonalEdgeStyle;rounded=0;orthogonalLoop=1;jettySize=auto;html=1;entryX=0;entryY=0.5;entryDx=0;entryDy=0;fontStyle=1" parent="IHCGl6r4kFkxUqH40hnX-1" source="gUQUB_aHqahPkXjqELlY-60" target="gUQUB_aHqahPkXjqELlY-59" edge="1">
          <mxGeometry relative="1" as="geometry">
            <mxPoint x="985" y="793" as="targetPoint" />
          </mxGeometry>
        </mxCell>
        <mxCell id="gUQUB_aHqahPkXjqELlY-66" value="`x_{\text{desired}}`" style="edgeLabel;html=1;align=center;verticalAlign=middle;resizable=0;points=[];fontStyle=1" parent="gUQUB_aHqahPkXjqELlY-65" vertex="1" connectable="0">
          <mxGeometry x="0.2" y="-1" relative="1" as="geometry">
            <mxPoint x="-6" y="-1" as="offset" />
          </mxGeometry>
        </mxCell>
        <mxCell id="gUQUB_aHqahPkXjqELlY-67" style="edgeStyle=orthogonalEdgeStyle;rounded=0;orthogonalLoop=1;jettySize=auto;html=1;entryX=0.5;entryY=0;entryDx=0;entryDy=0;fontStyle=1" parent="IHCGl6r4kFkxUqH40hnX-1" source="gUQUB_aHqahPkXjqELlY-69" target="gUQUB_aHqahPkXjqELlY-72" edge="1">
          <mxGeometry relative="1" as="geometry" />
        </mxCell>
        <mxCell id="gUQUB_aHqahPkXjqELlY-68" value="`F`" style="edgeLabel;html=1;align=center;verticalAlign=middle;resizable=0;points=[];fontStyle=1" parent="gUQUB_aHqahPkXjqELlY-67" vertex="1" connectable="0">
          <mxGeometry x="-0.0156" relative="1" as="geometry">
            <mxPoint x="-42" as="offset" />
          </mxGeometry>
        </mxCell>
        <mxCell id="gUQUB_aHqahPkXjqELlY-69" value="&lt;span style=&quot;font-size: 10px;&quot;&gt;Servo Motors&lt;/span&gt;&lt;div&gt;&lt;span style=&quot;font-size: 10px;&quot;&gt;(Joints)&lt;/span&gt;&lt;/div&gt;" style="rounded=0;whiteSpace=wrap;html=1;fontStyle=1" parent="IHCGl6r4kFkxUqH40hnX-1" vertex="1">
          <mxGeometry x="990" y="820" width="80" height="40" as="geometry" />
        </mxCell>
        <mxCell id="gUQUB_aHqahPkXjqELlY-70" style="edgeStyle=orthogonalEdgeStyle;rounded=0;orthogonalLoop=1;jettySize=auto;html=1;entryX=1;entryY=0.5;entryDx=0;entryDy=0;fontStyle=1" parent="IHCGl6r4kFkxUqH40hnX-1" source="gUQUB_aHqahPkXjqELlY-72" target="gUQUB_aHqahPkXjqELlY-76" edge="1">
          <mxGeometry relative="1" as="geometry" />
        </mxCell>
        <mxCell id="gUQUB_aHqahPkXjqELlY-71" value="`F_{\text{actual}}`" style="edgeLabel;html=1;align=center;verticalAlign=middle;resizable=0;points=[];fontStyle=1" parent="gUQUB_aHqahPkXjqELlY-70" vertex="1" connectable="0">
          <mxGeometry x="-0.0222" y="1" relative="1" as="geometry">
            <mxPoint y="-1" as="offset" />
          </mxGeometry>
        </mxCell>
        <mxCell id="gUQUB_aHqahPkXjqELlY-72" value="&lt;span style=&quot;font-size: 10px;&quot;&gt;Envrionment&lt;/span&gt;&lt;div&gt;&lt;span style=&quot;font-size: 10px;&quot;&gt;(Payload)&lt;/span&gt;&lt;/div&gt;" style="rounded=0;whiteSpace=wrap;html=1;fontStyle=1" parent="IHCGl6r4kFkxUqH40hnX-1" vertex="1">
          <mxGeometry x="1130" y="890" width="80" height="40" as="geometry" />
        </mxCell>
        <mxCell id="gUQUB_aHqahPkXjqELlY-73" style="edgeStyle=orthogonalEdgeStyle;rounded=0;orthogonalLoop=1;jettySize=auto;html=1;entryX=0.5;entryY=1;entryDx=0;entryDy=0;fontStyle=1" parent="IHCGl6r4kFkxUqH40hnX-1" source="gUQUB_aHqahPkXjqELlY-76" target="gUQUB_aHqahPkXjqELlY-56" edge="1">
          <mxGeometry relative="1" as="geometry" />
        </mxCell>
        <mxCell id="gUQUB_aHqahPkXjqELlY-74" style="edgeStyle=orthogonalEdgeStyle;rounded=0;orthogonalLoop=1;jettySize=auto;html=1;entryX=0.75;entryY=1;entryDx=0;entryDy=0;fontStyle=1" parent="IHCGl6r4kFkxUqH40hnX-1" source="gUQUB_aHqahPkXjqELlY-76" target="gUQUB_aHqahPkXjqELlY-55" edge="1">
          <mxGeometry relative="1" as="geometry" />
        </mxCell>
        <mxCell id="gUQUB_aHqahPkXjqELlY-75" value="`F_\text{measured}`" style="edgeLabel;html=1;align=center;verticalAlign=middle;resizable=0;points=[];fontStyle=1" parent="gUQUB_aHqahPkXjqELlY-74" vertex="1" connectable="0">
          <mxGeometry x="0.0509" relative="1" as="geometry">
            <mxPoint x="10" as="offset" />
          </mxGeometry>
        </mxCell>
        <mxCell id="gUQUB_aHqahPkXjqELlY-76" value="&lt;span style=&quot;font-size: 10px;&quot;&gt;FSR&lt;/span&gt;" style="rounded=0;whiteSpace=wrap;html=1;fillColor=#f5f5f5;strokeColor=#666666;fontStyle=1;fillStyle=auto;fontColor=#333333;" parent="IHCGl6r4kFkxUqH40hnX-1" vertex="1">
          <mxGeometry x="990" y="890" width="80" height="40" as="geometry" />
        </mxCell>
        <mxCell id="gUQUB_aHqahPkXjqELlY-77" style="edgeStyle=orthogonalEdgeStyle;rounded=0;orthogonalLoop=1;jettySize=auto;html=1;entryX=0;entryY=0.5;entryDx=0;entryDy=0;fontStyle=1" parent="IHCGl6r4kFkxUqH40hnX-1" target="gUQUB_aHqahPkXjqELlY-7" edge="1">
          <mxGeometry relative="1" as="geometry">
            <mxPoint x="350" y="1050" as="sourcePoint" />
            <mxPoint x="520" y="1100" as="targetPoint" />
          </mxGeometry>
        </mxCell>
        <mxCell id="gUQUB_aHqahPkXjqELlY-78" value="`\text{Goal Pose}`" style="edgeLabel;html=1;align=center;verticalAlign=middle;resizable=0;points=[];fontStyle=1" parent="gUQUB_aHqahPkXjqELlY-77" vertex="1" connectable="0">
          <mxGeometry x="-0.1917" relative="1" as="geometry">
            <mxPoint x="11" as="offset" />
          </mxGeometry>
        </mxCell>
        <mxCell id="gUQUB_aHqahPkXjqELlY-82" style="edgeStyle=orthogonalEdgeStyle;rounded=0;orthogonalLoop=1;jettySize=auto;html=1;entryX=0.25;entryY=1;entryDx=0;entryDy=0;fontStyle=1" parent="IHCGl6r4kFkxUqH40hnX-1" target="gUQUB_aHqahPkXjqELlY-55" edge="1">
          <mxGeometry relative="1" as="geometry">
            <Array as="points">
              <mxPoint x="520" y="890" />
              <mxPoint x="630" y="890" />
            </Array>
            <mxPoint x="520" y="890" as="sourcePoint" />
          </mxGeometry>
        </mxCell>
        <mxCell id="gUQUB_aHqahPkXjqELlY-83" value="`(x_{\text{monica}}-x_{\text{ross}})`" style="edgeLabel;html=1;align=center;verticalAlign=middle;resizable=0;points=[];fontStyle=1" parent="gUQUB_aHqahPkXjqELlY-82" vertex="1" connectable="0">
          <mxGeometry x="-0.2367" relative="1" as="geometry">
            <mxPoint x="-5" as="offset" />
          </mxGeometry>
        </mxCell>
        <mxCell id="gUQUB_aHqahPkXjqELlY-85" value="`\theta_{\text{estimated, left}} \text{(Joint Space)}`" style="edgeLabel;html=1;align=center;verticalAlign=middle;resizable=0;points=[];fontStyle=1" parent="IHCGl6r4kFkxUqH40hnX-1" vertex="1" connectable="0">
          <mxGeometry x="890" y="1210" as="geometry" />
        </mxCell>
        <mxCell id="gUQUB_aHqahPkXjqELlY-86" style="edgeStyle=orthogonalEdgeStyle;rounded=0;orthogonalLoop=1;jettySize=auto;html=1;entryX=0.5;entryY=1;entryDx=0;entryDy=0;fontStyle=1" parent="IHCGl6r4kFkxUqH40hnX-1" source="gUQUB_aHqahPkXjqELlY-88" target="gUQUB_aHqahPkXjqELlY-7" edge="1">
          <mxGeometry relative="1" as="geometry" />
        </mxCell>
        <mxCell id="gUQUB_aHqahPkXjqELlY-87" value="`\text{Pose}_{\text{filtered}}`" style="edgeLabel;html=1;align=center;verticalAlign=middle;resizable=0;points=[];fontStyle=1" parent="gUQUB_aHqahPkXjqELlY-86" vertex="1" connectable="0">
          <mxGeometry x="-0.1486" y="-1" relative="1" as="geometry">
            <mxPoint as="offset" />
          </mxGeometry>
        </mxCell>
        <mxCell id="gUQUB_aHqahPkXjqELlY-88" value="&lt;font style=&quot;font-size: 10px;&quot;&gt;EKF&lt;/font&gt;" style="rounded=0;whiteSpace=wrap;html=1;fontStyle=1" parent="IHCGl6r4kFkxUqH40hnX-1" vertex="1">
          <mxGeometry x="470" y="1120" width="80" height="40" as="geometry" />
        </mxCell>
        <mxCell id="gUQUB_aHqahPkXjqELlY-89" value="&lt;font style=&quot;font-size: 10px;&quot;&gt;IMU&lt;/font&gt;" style="rounded=0;whiteSpace=wrap;html=1;fillColor=#f5f5f5;strokeColor=#666666;fontStyle=1;fillStyle=auto;fontColor=#333333;" parent="IHCGl6r4kFkxUqH40hnX-1" vertex="1">
          <mxGeometry x="470" y="1200" width="80" height="40" as="geometry" />
        </mxCell>
        <mxCell id="gUQUB_aHqahPkXjqELlY-90" value="&lt;span&gt;&lt;font style=&quot;font-size: 18px;&quot;&gt;MOBILE BASE&lt;/font&gt;&lt;/span&gt;" style="text;html=1;align=left;verticalAlign=middle;resizable=0;points=[];autosize=1;strokeColor=none;fillColor=none;fontStyle=1" parent="IHCGl6r4kFkxUqH40hnX-1" vertex="1">
          <mxGeometry x="460" y="930" width="140" height="40" as="geometry" />
        </mxCell>
        <mxCell id="gUQUB_aHqahPkXjqELlY-92" value="&lt;span&gt;&lt;font style=&quot;font-size: 18px;&quot;&gt;MANIPULATOR&lt;/font&gt;&lt;/span&gt;" style="text;html=1;align=left;verticalAlign=middle;resizable=0;points=[];autosize=1;strokeColor=none;fillColor=none;fontStyle=1" parent="IHCGl6r4kFkxUqH40hnX-1" vertex="1">
          <mxGeometry x="600" y="690" width="150" height="40" as="geometry" />
        </mxCell>
        <mxCell id="gUQUB_aHqahPkXjqELlY-93" value="" style="rounded=1;whiteSpace=wrap;html=1;fillColor=#f8cecc;strokeColor=#b85450;arcSize=4;fontStyle=1" parent="IHCGl6r4kFkxUqH40hnX-1" vertex="1">
          <mxGeometry x="1370" y="720" width="480" height="220" as="geometry" />
        </mxCell>
        <mxCell id="gUQUB_aHqahPkXjqELlY-95" value="" style="rounded=1;whiteSpace=wrap;html=1;fillColor=#d5e8d4;strokeColor=#82b366;arcSize=3;fontStyle=1" parent="IHCGl6r4kFkxUqH40hnX-1" vertex="1">
          <mxGeometry x="1230" y="960" width="660" height="290" as="geometry" />
        </mxCell>
        <mxCell id="gUQUB_aHqahPkXjqELlY-96" style="edgeStyle=orthogonalEdgeStyle;rounded=0;orthogonalLoop=1;jettySize=auto;html=1;entryX=0;entryY=0.5;entryDx=0;entryDy=0;fontStyle=1" parent="IHCGl6r4kFkxUqH40hnX-1" source="gUQUB_aHqahPkXjqELlY-100" target="gUQUB_aHqahPkXjqELlY-101" edge="1">
          <mxGeometry relative="1" as="geometry" />
        </mxCell>
        <mxCell id="gUQUB_aHqahPkXjqELlY-97" value="`v_{cmd}`" style="edgeLabel;html=1;align=center;verticalAlign=middle;resizable=0;points=[];fontStyle=1" parent="gUQUB_aHqahPkXjqELlY-96" vertex="1" connectable="0">
          <mxGeometry x="-0.0667" y="-2" relative="1" as="geometry">
            <mxPoint x="2" y="8" as="offset" />
          </mxGeometry>
        </mxCell>
        <mxCell id="gUQUB_aHqahPkXjqELlY-98" style="edgeStyle=orthogonalEdgeStyle;rounded=0;orthogonalLoop=1;jettySize=auto;html=1;entryX=0.5;entryY=1;entryDx=0;entryDy=0;fontStyle=1" parent="IHCGl6r4kFkxUqH40hnX-1" source="gUQUB_aHqahPkXjqELlY-100" target="gUQUB_aHqahPkXjqELlY-148" edge="1">
          <mxGeometry relative="1" as="geometry">
            <Array as="points">
              <mxPoint x="1280" y="1000" />
              <mxPoint x="1420" y="1000" />
            </Array>
          </mxGeometry>
        </mxCell>
        <mxCell id="gUQUB_aHqahPkXjqELlY-99" value="`\text{Covariance}`" style="edgeLabel;html=1;align=center;verticalAlign=middle;resizable=0;points=[];fontStyle=1" parent="gUQUB_aHqahPkXjqELlY-98" vertex="1" connectable="0">
          <mxGeometry x="-0.424" y="-3" relative="1" as="geometry">
            <mxPoint y="-3" as="offset" />
          </mxGeometry>
        </mxCell>
        <mxCell id="gUQUB_aHqahPkXjqELlY-100" value="&lt;font style=&quot;font-size: 10px;&quot;&gt;Nav2&lt;/font&gt;" style="rounded=0;whiteSpace=wrap;html=1;fontStyle=1" parent="IHCGl6r4kFkxUqH40hnX-1" vertex="1">
          <mxGeometry x="1240" y="1030" width="80" height="40" as="geometry" />
        </mxCell>
        <mxCell id="gUQUB_aHqahPkXjqELlY-101" value="&lt;font style=&quot;font-size: 10px;&quot;&gt;Robot Inverse Kinematics&lt;/font&gt;" style="rounded=0;whiteSpace=wrap;html=1;fontStyle=1" parent="IHCGl6r4kFkxUqH40hnX-1" vertex="1">
          <mxGeometry x="1380" y="1060" width="80" height="40" as="geometry" />
        </mxCell>
        <mxCell id="gUQUB_aHqahPkXjqELlY-102" style="edgeStyle=orthogonalEdgeStyle;rounded=0;orthogonalLoop=1;jettySize=auto;html=1;entryX=0;entryY=0.5;entryDx=0;entryDy=0;fontStyle=1" parent="IHCGl6r4kFkxUqH40hnX-1" source="gUQUB_aHqahPkXjqELlY-104" target="gUQUB_aHqahPkXjqELlY-112" edge="1">
          <mxGeometry relative="1" as="geometry" />
        </mxCell>
        <mxCell id="gUQUB_aHqahPkXjqELlY-103" value="`\text{PWM}`" style="edgeLabel;html=1;align=center;verticalAlign=middle;resizable=0;points=[];fontStyle=1" parent="gUQUB_aHqahPkXjqELlY-102" vertex="1" connectable="0">
          <mxGeometry x="-0.3524" relative="1" as="geometry">
            <mxPoint x="11" as="offset" />
          </mxGeometry>
        </mxCell>
        <mxCell id="gUQUB_aHqahPkXjqELlY-104" value="&lt;font style=&quot;font-size: 10px;&quot;&gt;PID (Left)&lt;/font&gt;" style="rounded=0;whiteSpace=wrap;html=1;fontStyle=1" parent="IHCGl6r4kFkxUqH40hnX-1" vertex="1">
          <mxGeometry x="1620" y="1030" width="80" height="40" as="geometry" />
        </mxCell>
        <mxCell id="gUQUB_aHqahPkXjqELlY-105" style="edgeStyle=orthogonalEdgeStyle;rounded=0;orthogonalLoop=1;jettySize=auto;html=1;entryX=0;entryY=0.5;entryDx=0;entryDy=0;fontStyle=1" parent="IHCGl6r4kFkxUqH40hnX-1" source="gUQUB_aHqahPkXjqELlY-107" target="gUQUB_aHqahPkXjqELlY-104" edge="1">
          <mxGeometry relative="1" as="geometry" />
        </mxCell>
        <mxCell id="gUQUB_aHqahPkXjqELlY-106" value="`v_{\text{error}}`" style="edgeLabel;html=1;align=center;verticalAlign=middle;resizable=0;points=[];fontStyle=1" parent="gUQUB_aHqahPkXjqELlY-105" vertex="1" connectable="0">
          <mxGeometry x="-0.181" y="-3" relative="1" as="geometry">
            <mxPoint x="5" y="-3" as="offset" />
          </mxGeometry>
        </mxCell>
        <mxCell id="gUQUB_aHqahPkXjqELlY-107" value="" style="verticalLabelPosition=bottom;verticalAlign=top;html=1;shape=mxgraph.flowchart.or;fontStyle=1" parent="IHCGl6r4kFkxUqH40hnX-1" vertex="1">
          <mxGeometry x="1520" y="1030" width="40" height="40" as="geometry" />
        </mxCell>
        <mxCell id="gUQUB_aHqahPkXjqELlY-108" style="edgeStyle=orthogonalEdgeStyle;rounded=0;orthogonalLoop=1;jettySize=auto;html=1;entryX=0;entryY=0.5;entryDx=0;entryDy=0;fontStyle=1" parent="IHCGl6r4kFkxUqH40hnX-1" source="gUQUB_aHqahPkXjqELlY-110" target="gUQUB_aHqahPkXjqELlY-120" edge="1">
          <mxGeometry relative="1" as="geometry" />
        </mxCell>
        <mxCell id="gUQUB_aHqahPkXjqELlY-109" value="`v_{\text{error}}`" style="edgeLabel;html=1;align=center;verticalAlign=middle;resizable=0;points=[];fontStyle=1" parent="gUQUB_aHqahPkXjqELlY-108" vertex="1" connectable="0">
          <mxGeometry x="0.1619" y="-1" relative="1" as="geometry">
            <mxPoint x="-5" y="-1" as="offset" />
          </mxGeometry>
        </mxCell>
        <mxCell id="gUQUB_aHqahPkXjqELlY-110" value="" style="verticalLabelPosition=bottom;verticalAlign=top;html=1;shape=mxgraph.flowchart.or;fontStyle=1" parent="IHCGl6r4kFkxUqH40hnX-1" vertex="1">
          <mxGeometry x="1520" y="1090" width="40" height="40" as="geometry" />
        </mxCell>
        <mxCell id="gUQUB_aHqahPkXjqELlY-111" style="edgeStyle=orthogonalEdgeStyle;rounded=0;orthogonalLoop=1;jettySize=auto;html=1;entryX=0.5;entryY=1;entryDx=0;entryDy=0;fontStyle=1" parent="IHCGl6r4kFkxUqH40hnX-1" source="gUQUB_aHqahPkXjqELlY-112" target="gUQUB_aHqahPkXjqELlY-117" edge="1">
          <mxGeometry relative="1" as="geometry" />
        </mxCell>
        <mxCell id="gUQUB_aHqahPkXjqELlY-112" value="&lt;span style=&quot;font-size: 10px;&quot;&gt;Drive Motors (Left)&lt;/span&gt;" style="rounded=0;whiteSpace=wrap;html=1;fontStyle=1" parent="IHCGl6r4kFkxUqH40hnX-1" vertex="1">
          <mxGeometry x="1760" y="1030" width="80" height="40" as="geometry" />
        </mxCell>
        <mxCell id="gUQUB_aHqahPkXjqELlY-113" style="edgeStyle=orthogonalEdgeStyle;rounded=0;orthogonalLoop=1;jettySize=auto;html=1;entryX=1;entryY=0.5;entryDx=0;entryDy=0;exitX=0;exitY=0.5;exitDx=0;exitDy=0;fontStyle=1" parent="IHCGl6r4kFkxUqH40hnX-1" source="gUQUB_aHqahPkXjqELlY-117" target="gUQUB_aHqahPkXjqELlY-128" edge="1">
          <mxGeometry relative="1" as="geometry" />
        </mxCell>
        <mxCell id="gUQUB_aHqahPkXjqELlY-114" value="`\theta_{\text{estimated}}`" style="edgeLabel;html=1;align=center;verticalAlign=middle;resizable=0;points=[];fontStyle=1" parent="gUQUB_aHqahPkXjqELlY-113" vertex="1" connectable="0">
          <mxGeometry x="0.04" y="4" relative="1" as="geometry">
            <mxPoint x="12" y="-4" as="offset" />
          </mxGeometry>
        </mxCell>
        <mxCell id="gUQUB_aHqahPkXjqELlY-115" style="edgeStyle=orthogonalEdgeStyle;rounded=0;orthogonalLoop=1;jettySize=auto;html=1;entryX=1;entryY=0.75;entryDx=0;entryDy=0;exitX=1;exitY=0.5;exitDx=0;exitDy=0;fontStyle=1" parent="IHCGl6r4kFkxUqH40hnX-1" source="gUQUB_aHqahPkXjqELlY-117" target="gUQUB_aHqahPkXjqELlY-135" edge="1">
          <mxGeometry relative="1" as="geometry">
            <Array as="points">
              <mxPoint x="1880" y="990" />
              <mxPoint x="1880" y="1230" />
              <mxPoint x="1460" y="1230" />
            </Array>
          </mxGeometry>
        </mxCell>
        <mxCell id="gUQUB_aHqahPkXjqELlY-116" value="`\theta_{\text{estimated, right}} \text{(Joint Space)}`" style="edgeLabel;html=1;align=center;verticalAlign=middle;resizable=0;points=[];fontStyle=1" parent="gUQUB_aHqahPkXjqELlY-115" vertex="1" connectable="0">
          <mxGeometry x="0.1993" y="4" relative="1" as="geometry">
            <mxPoint x="-80" y="-4" as="offset" />
          </mxGeometry>
        </mxCell>
        <mxCell id="gUQUB_aHqahPkXjqELlY-117" value="&lt;span style=&quot;font-size: 10px;&quot;&gt;Encoder (Left)&lt;/span&gt;" style="rounded=0;whiteSpace=wrap;html=1;fillColor=#f5f5f5;strokeColor=#666666;fontStyle=1;fillStyle=auto;fontColor=#333333;" parent="IHCGl6r4kFkxUqH40hnX-1" vertex="1">
          <mxGeometry x="1760" y="970" width="80" height="40" as="geometry" />
        </mxCell>
        <mxCell id="gUQUB_aHqahPkXjqELlY-118" style="edgeStyle=orthogonalEdgeStyle;rounded=0;orthogonalLoop=1;jettySize=auto;html=1;entryX=0;entryY=0.5;entryDx=0;entryDy=0;fontStyle=1" parent="IHCGl6r4kFkxUqH40hnX-1" source="gUQUB_aHqahPkXjqELlY-120" target="gUQUB_aHqahPkXjqELlY-122" edge="1">
          <mxGeometry relative="1" as="geometry" />
        </mxCell>
        <mxCell id="gUQUB_aHqahPkXjqELlY-119" value="`\text{PWM}`" style="edgeLabel;html=1;align=center;verticalAlign=middle;resizable=0;points=[];fontStyle=1" parent="gUQUB_aHqahPkXjqELlY-118" vertex="1" connectable="0">
          <mxGeometry x="-0.219" y="-1" relative="1" as="geometry">
            <mxPoint x="7" y="-1" as="offset" />
          </mxGeometry>
        </mxCell>
        <mxCell id="gUQUB_aHqahPkXjqELlY-120" value="&lt;font style=&quot;font-size: 10px;&quot;&gt;PID (Right)&lt;/font&gt;" style="rounded=0;whiteSpace=wrap;html=1;fontStyle=1" parent="IHCGl6r4kFkxUqH40hnX-1" vertex="1">
          <mxGeometry x="1620" y="1090" width="80" height="40" as="geometry" />
        </mxCell>
        <mxCell id="gUQUB_aHqahPkXjqELlY-121" style="edgeStyle=orthogonalEdgeStyle;rounded=0;orthogonalLoop=1;jettySize=auto;html=1;entryX=0.5;entryY=0;entryDx=0;entryDy=0;fontStyle=1" parent="IHCGl6r4kFkxUqH40hnX-1" source="gUQUB_aHqahPkXjqELlY-122" target="gUQUB_aHqahPkXjqELlY-126" edge="1">
          <mxGeometry relative="1" as="geometry" />
        </mxCell>
        <mxCell id="gUQUB_aHqahPkXjqELlY-122" value="&lt;span style=&quot;font-size: 10px;&quot;&gt;Drive Motors (Right)&lt;/span&gt;" style="rounded=0;whiteSpace=wrap;html=1;fontStyle=1" parent="IHCGl6r4kFkxUqH40hnX-1" vertex="1">
          <mxGeometry x="1760" y="1090" width="80" height="40" as="geometry" />
        </mxCell>
        <mxCell id="gUQUB_aHqahPkXjqELlY-123" style="edgeStyle=orthogonalEdgeStyle;rounded=0;orthogonalLoop=1;jettySize=auto;html=1;entryX=1;entryY=0.5;entryDx=0;entryDy=0;exitX=0;exitY=0.5;exitDx=0;exitDy=0;fontStyle=1" parent="IHCGl6r4kFkxUqH40hnX-1" source="gUQUB_aHqahPkXjqELlY-126" target="gUQUB_aHqahPkXjqELlY-127" edge="1">
          <mxGeometry relative="1" as="geometry" />
        </mxCell>
        <mxCell id="gUQUB_aHqahPkXjqELlY-124" value="`\theta_{\text{estimated}}`" style="edgeLabel;html=1;align=center;verticalAlign=middle;resizable=0;points=[];fontStyle=1" parent="gUQUB_aHqahPkXjqELlY-123" vertex="1" connectable="0">
          <mxGeometry x="0.0857" y="1" relative="1" as="geometry">
            <mxPoint x="14" y="-1" as="offset" />
          </mxGeometry>
        </mxCell>
        <mxCell id="gUQUB_aHqahPkXjqELlY-125" style="edgeStyle=orthogonalEdgeStyle;rounded=0;orthogonalLoop=1;jettySize=auto;html=1;exitX=1;exitY=0.5;exitDx=0;exitDy=0;entryX=1;entryY=0.25;entryDx=0;entryDy=0;fontStyle=1" parent="IHCGl6r4kFkxUqH40hnX-1" source="gUQUB_aHqahPkXjqELlY-126" target="gUQUB_aHqahPkXjqELlY-135" edge="1">
          <mxGeometry relative="1" as="geometry">
            <mxPoint x="1410" y="1200" as="targetPoint" />
            <Array as="points">
              <mxPoint x="1860" y="1170" />
              <mxPoint x="1860" y="1210" />
              <mxPoint x="1460" y="1210" />
            </Array>
          </mxGeometry>
        </mxCell>
        <mxCell id="gUQUB_aHqahPkXjqELlY-126" value="&lt;span style=&quot;font-size: 10px;&quot;&gt;Encoder (Left)&lt;/span&gt;" style="rounded=0;whiteSpace=wrap;html=1;fillColor=#f5f5f5;strokeColor=#666666;fontStyle=1;fillStyle=auto;fontColor=#333333;" parent="IHCGl6r4kFkxUqH40hnX-1" vertex="1">
          <mxGeometry x="1760" y="1150" width="80" height="40" as="geometry" />
        </mxCell>
        <mxCell id="gUQUB_aHqahPkXjqELlY-127" value="&lt;span style=&quot;font-size: 10px;&quot;&gt;`\frac{d}{dt}`&lt;/span&gt;" style="rounded=0;whiteSpace=wrap;html=1;fontStyle=1" parent="IHCGl6r4kFkxUqH40hnX-1" vertex="1">
          <mxGeometry x="1620" y="1150" width="40" height="40" as="geometry" />
        </mxCell>
        <mxCell id="gUQUB_aHqahPkXjqELlY-128" value="&lt;span style=&quot;font-size: 10px;&quot;&gt;`\frac{d}{dt}`&lt;/span&gt;" style="rounded=0;whiteSpace=wrap;html=1;fontStyle=1" parent="IHCGl6r4kFkxUqH40hnX-1" vertex="1">
          <mxGeometry x="1620" y="970" width="40" height="40" as="geometry" />
        </mxCell>
        <mxCell id="gUQUB_aHqahPkXjqELlY-129" style="edgeStyle=orthogonalEdgeStyle;rounded=0;orthogonalLoop=1;jettySize=auto;html=1;entryX=0.5;entryY=0;entryDx=0;entryDy=0;entryPerimeter=0;fontStyle=1" parent="IHCGl6r4kFkxUqH40hnX-1" source="gUQUB_aHqahPkXjqELlY-128" target="gUQUB_aHqahPkXjqELlY-107" edge="1">
          <mxGeometry relative="1" as="geometry" />
        </mxCell>
        <mxCell id="gUQUB_aHqahPkXjqELlY-130" value="`v_{\text{estimated}}`" style="edgeLabel;html=1;align=center;verticalAlign=middle;resizable=0;points=[];fontStyle=1" parent="gUQUB_aHqahPkXjqELlY-129" vertex="1" connectable="0">
          <mxGeometry x="-0.2951" y="2" relative="1" as="geometry">
            <mxPoint y="-2" as="offset" />
          </mxGeometry>
        </mxCell>
        <mxCell id="gUQUB_aHqahPkXjqELlY-131" style="edgeStyle=orthogonalEdgeStyle;rounded=0;orthogonalLoop=1;jettySize=auto;html=1;entryX=0.5;entryY=1;entryDx=0;entryDy=0;entryPerimeter=0;fontStyle=1" parent="IHCGl6r4kFkxUqH40hnX-1" source="gUQUB_aHqahPkXjqELlY-127" target="gUQUB_aHqahPkXjqELlY-110" edge="1">
          <mxGeometry relative="1" as="geometry" />
        </mxCell>
        <mxCell id="gUQUB_aHqahPkXjqELlY-132" value="`v_{\text{estimated}}`" style="edgeLabel;html=1;align=center;verticalAlign=middle;resizable=0;points=[];fontStyle=1" parent="gUQUB_aHqahPkXjqELlY-131" vertex="1" connectable="0">
          <mxGeometry x="-0.1431" y="1" relative="1" as="geometry">
            <mxPoint x="11" y="-1" as="offset" />
          </mxGeometry>
        </mxCell>
        <mxCell id="gUQUB_aHqahPkXjqELlY-133" style="edgeStyle=orthogonalEdgeStyle;rounded=0;orthogonalLoop=1;jettySize=auto;html=1;entryX=0.75;entryY=1;entryDx=0;entryDy=0;exitX=0.5;exitY=0;exitDx=0;exitDy=0;fontStyle=1" parent="IHCGl6r4kFkxUqH40hnX-1" source="gUQUB_aHqahPkXjqELlY-135" target="gUQUB_aHqahPkXjqELlY-181" edge="1">
          <mxGeometry relative="1" as="geometry" />
        </mxCell>
        <mxCell id="gUQUB_aHqahPkXjqELlY-134" value="`\text{Pose}_{\text{wheel}}`" style="edgeLabel;html=1;align=center;verticalAlign=middle;resizable=0;points=[];fontStyle=1" parent="gUQUB_aHqahPkXjqELlY-133" vertex="1" connectable="0">
          <mxGeometry x="0.4638" y="-1" relative="1" as="geometry">
            <mxPoint x="39" y="1" as="offset" />
          </mxGeometry>
        </mxCell>
        <mxCell id="gUQUB_aHqahPkXjqELlY-135" value="&lt;font style=&quot;font-size: 10px;&quot;&gt;Robot Forward Kinematics&lt;/font&gt;" style="rounded=0;whiteSpace=wrap;html=1;fontStyle=1" parent="IHCGl6r4kFkxUqH40hnX-1" vertex="1">
          <mxGeometry x="1380" y="1200" width="80" height="40" as="geometry" />
        </mxCell>
        <mxCell id="gUQUB_aHqahPkXjqELlY-136" style="edgeStyle=orthogonalEdgeStyle;rounded=0;orthogonalLoop=1;jettySize=auto;html=1;entryX=0;entryY=0.5;entryDx=0;entryDy=0;entryPerimeter=0;exitX=0.5;exitY=0;exitDx=0;exitDy=0;fontStyle=1" parent="IHCGl6r4kFkxUqH40hnX-1" source="gUQUB_aHqahPkXjqELlY-101" target="gUQUB_aHqahPkXjqELlY-107" edge="1">
          <mxGeometry relative="1" as="geometry">
            <Array as="points">
              <mxPoint x="1420" y="1050" />
            </Array>
          </mxGeometry>
        </mxCell>
        <mxCell id="gUQUB_aHqahPkXjqELlY-137" value="`v_{desired}`" style="edgeLabel;html=1;align=center;verticalAlign=middle;resizable=0;points=[];fontStyle=1" parent="gUQUB_aHqahPkXjqELlY-136" vertex="1" connectable="0">
          <mxGeometry x="0.0762" y="1" relative="1" as="geometry">
            <mxPoint x="11" y="1" as="offset" />
          </mxGeometry>
        </mxCell>
        <mxCell id="gUQUB_aHqahPkXjqELlY-138" style="edgeStyle=orthogonalEdgeStyle;rounded=0;orthogonalLoop=1;jettySize=auto;html=1;entryX=0;entryY=0.5;entryDx=0;entryDy=0;entryPerimeter=0;exitX=0.5;exitY=1;exitDx=0;exitDy=0;fontStyle=1" parent="IHCGl6r4kFkxUqH40hnX-1" source="gUQUB_aHqahPkXjqELlY-101" target="gUQUB_aHqahPkXjqELlY-110" edge="1">
          <mxGeometry relative="1" as="geometry">
            <Array as="points">
              <mxPoint x="1420" y="1110" />
            </Array>
          </mxGeometry>
        </mxCell>
        <mxCell id="gUQUB_aHqahPkXjqELlY-139" value="`v_{desired}`" style="edgeLabel;html=1;align=center;verticalAlign=middle;resizable=0;points=[];fontStyle=1" parent="gUQUB_aHqahPkXjqELlY-138" vertex="1" connectable="0">
          <mxGeometry x="0.2521" relative="1" as="geometry">
            <mxPoint as="offset" />
          </mxGeometry>
        </mxCell>
        <mxCell id="gUQUB_aHqahPkXjqELlY-140" style="edgeStyle=orthogonalEdgeStyle;rounded=0;orthogonalLoop=1;jettySize=auto;html=1;exitX=0.25;exitY=0;exitDx=0;exitDy=0;entryX=0.25;entryY=1;entryDx=0;entryDy=0;fontStyle=1" parent="IHCGl6r4kFkxUqH40hnX-1" source="gUQUB_aHqahPkXjqELlY-182" target="gUQUB_aHqahPkXjqELlY-181" edge="1">
          <mxGeometry relative="1" as="geometry" />
        </mxCell>
        <mxCell id="gUQUB_aHqahPkXjqELlY-141" value="`\text{Pose}_{\text{IMU}}`" style="edgeLabel;html=1;align=center;verticalAlign=middle;resizable=0;points=[];fontStyle=1" parent="gUQUB_aHqahPkXjqELlY-140" vertex="1" connectable="0">
          <mxGeometry x="-0.1917" relative="1" as="geometry">
            <mxPoint x="1" y="-4" as="offset" />
          </mxGeometry>
        </mxCell>
        <mxCell id="gUQUB_aHqahPkXjqELlY-142" style="edgeStyle=orthogonalEdgeStyle;rounded=0;orthogonalLoop=1;jettySize=auto;html=1;entryX=0;entryY=0.5;entryDx=0;entryDy=0;fontStyle=1" parent="IHCGl6r4kFkxUqH40hnX-1" source="gUQUB_aHqahPkXjqELlY-148" target="gUQUB_aHqahPkXjqELlY-149" edge="1">
          <mxGeometry relative="1" as="geometry" />
        </mxCell>
        <mxCell id="gUQUB_aHqahPkXjqELlY-143" value="`\mathbf{D}`" style="edgeLabel;html=1;align=center;verticalAlign=middle;resizable=0;points=[];fontStyle=1" parent="gUQUB_aHqahPkXjqELlY-142" vertex="1" connectable="0">
          <mxGeometry x="-0.0567" relative="1" as="geometry">
            <mxPoint as="offset" />
          </mxGeometry>
        </mxCell>
        <mxCell id="gUQUB_aHqahPkXjqELlY-144" style="edgeStyle=orthogonalEdgeStyle;rounded=0;orthogonalLoop=1;jettySize=auto;html=1;exitX=1;exitY=0.25;exitDx=0;exitDy=0;entryX=0;entryY=0.25;entryDx=0;entryDy=0;fontStyle=1" parent="IHCGl6r4kFkxUqH40hnX-1" source="gUQUB_aHqahPkXjqELlY-148" target="gUQUB_aHqahPkXjqELlY-149" edge="1">
          <mxGeometry relative="1" as="geometry" />
        </mxCell>
        <mxCell id="gUQUB_aHqahPkXjqELlY-145" value="`\mathbf{K}`" style="edgeLabel;html=1;align=center;verticalAlign=middle;resizable=0;points=[];fontStyle=1" parent="gUQUB_aHqahPkXjqELlY-144" vertex="1" connectable="0">
          <mxGeometry x="-0.0905" relative="1" as="geometry">
            <mxPoint as="offset" />
          </mxGeometry>
        </mxCell>
        <mxCell id="gUQUB_aHqahPkXjqELlY-146" style="edgeStyle=orthogonalEdgeStyle;rounded=0;orthogonalLoop=1;jettySize=auto;html=1;exitX=1;exitY=0.75;exitDx=0;exitDy=0;entryX=0;entryY=0.75;entryDx=0;entryDy=0;fontStyle=1" parent="IHCGl6r4kFkxUqH40hnX-1" source="gUQUB_aHqahPkXjqELlY-148" target="gUQUB_aHqahPkXjqELlY-149" edge="1">
          <mxGeometry relative="1" as="geometry" />
        </mxCell>
        <mxCell id="gUQUB_aHqahPkXjqELlY-147" value="`\mathbf{M}`" style="edgeLabel;html=1;align=center;verticalAlign=middle;resizable=0;points=[];fontStyle=1" parent="gUQUB_aHqahPkXjqELlY-146" vertex="1" connectable="0">
          <mxGeometry x="0.1655" y="-1" relative="1" as="geometry">
            <mxPoint x="-5" y="-1" as="offset" />
          </mxGeometry>
        </mxCell>
        <mxCell id="gUQUB_aHqahPkXjqELlY-148" value="&lt;font style=&quot;font-size: 10px;&quot;&gt;Parameterization&lt;/font&gt;&lt;div&gt;&lt;font style=&quot;font-size: 10px;&quot;&gt;Node&lt;/font&gt;&lt;/div&gt;" style="rounded=0;whiteSpace=wrap;html=1;fontStyle=1" parent="IHCGl6r4kFkxUqH40hnX-1" vertex="1">
          <mxGeometry x="1380" y="750" width="80" height="80" as="geometry" />
        </mxCell>
        <mxCell id="gUQUB_aHqahPkXjqELlY-149" value="&lt;span style=&quot;font-size: 10px;&quot;&gt;Admittance Controller&lt;/span&gt;" style="rounded=0;whiteSpace=wrap;html=1;fontStyle=1" parent="IHCGl6r4kFkxUqH40hnX-1" vertex="1">
          <mxGeometry x="1520" y="750" width="80" height="80" as="geometry" />
        </mxCell>
        <mxCell id="gUQUB_aHqahPkXjqELlY-150" style="edgeStyle=orthogonalEdgeStyle;rounded=0;orthogonalLoop=1;jettySize=auto;html=1;entryX=0.5;entryY=0;entryDx=0;entryDy=0;fontStyle=1" parent="IHCGl6r4kFkxUqH40hnX-1" source="gUQUB_aHqahPkXjqELlY-152" target="gUQUB_aHqahPkXjqELlY-162" edge="1">
          <mxGeometry relative="1" as="geometry" />
        </mxCell>
        <mxCell id="gUQUB_aHqahPkXjqELlY-151" value="`\mathbf{\theta}_{\text{desired}}`" style="edgeLabel;html=1;align=center;verticalAlign=middle;resizable=0;points=[];fontStyle=1" parent="gUQUB_aHqahPkXjqELlY-150" vertex="1" connectable="0">
          <mxGeometry x="0.64" relative="1" as="geometry">
            <mxPoint y="-11" as="offset" />
          </mxGeometry>
        </mxCell>
        <mxCell id="gUQUB_aHqahPkXjqELlY-152" value="&lt;span style=&quot;font-size: 10px;&quot;&gt;Inverse Kinematics&lt;/span&gt;" style="rounded=0;whiteSpace=wrap;html=1;fontStyle=1" parent="IHCGl6r4kFkxUqH40hnX-1" vertex="1">
          <mxGeometry x="1760" y="750" width="80" height="40" as="geometry" />
        </mxCell>
        <mxCell id="gUQUB_aHqahPkXjqELlY-153" value="" style="verticalLabelPosition=bottom;verticalAlign=top;html=1;shape=mxgraph.flowchart.or;fontStyle=1" parent="IHCGl6r4kFkxUqH40hnX-1" vertex="1">
          <mxGeometry x="1660" y="750" width="40" height="40" as="geometry" />
        </mxCell>
        <mxCell id="gUQUB_aHqahPkXjqELlY-154" style="edgeStyle=orthogonalEdgeStyle;rounded=0;orthogonalLoop=1;jettySize=auto;html=1;entryX=0.5;entryY=0;entryDx=0;entryDy=0;entryPerimeter=0;exitX=0.5;exitY=0;exitDx=0;exitDy=0;fontStyle=1" parent="IHCGl6r4kFkxUqH40hnX-1" source="gUQUB_aHqahPkXjqELlY-148" target="gUQUB_aHqahPkXjqELlY-153" edge="1">
          <mxGeometry relative="1" as="geometry">
            <Array as="points">
              <mxPoint x="1420" y="730" />
              <mxPoint x="1680" y="730" />
            </Array>
          </mxGeometry>
        </mxCell>
        <mxCell id="gUQUB_aHqahPkXjqELlY-155" value="`x_{\text{virtual}}`" style="edgeLabel;html=1;align=center;verticalAlign=middle;resizable=0;points=[];fontStyle=1" parent="gUQUB_aHqahPkXjqELlY-154" vertex="1" connectable="0">
          <mxGeometry x="0.0067" y="-1" relative="1" as="geometry">
            <mxPoint x="-1" y="-1" as="offset" />
          </mxGeometry>
        </mxCell>
        <mxCell id="gUQUB_aHqahPkXjqELlY-156" style="edgeStyle=orthogonalEdgeStyle;rounded=0;orthogonalLoop=1;jettySize=auto;html=1;entryX=0;entryY=0.5;entryDx=0;entryDy=0;entryPerimeter=0;exitX=1;exitY=0.25;exitDx=0;exitDy=0;fontStyle=1" parent="IHCGl6r4kFkxUqH40hnX-1" source="gUQUB_aHqahPkXjqELlY-149" target="gUQUB_aHqahPkXjqELlY-153" edge="1">
          <mxGeometry relative="1" as="geometry" />
        </mxCell>
        <mxCell id="gUQUB_aHqahPkXjqELlY-157" value="`\Delta x`" style="edgeLabel;html=1;align=center;verticalAlign=middle;resizable=0;points=[];fontStyle=1" parent="gUQUB_aHqahPkXjqELlY-156" vertex="1" connectable="0">
          <mxGeometry relative="1" as="geometry">
            <mxPoint as="offset" />
          </mxGeometry>
        </mxCell>
        <mxCell id="gUQUB_aHqahPkXjqELlY-158" style="edgeStyle=orthogonalEdgeStyle;rounded=0;orthogonalLoop=1;jettySize=auto;html=1;entryX=0;entryY=0.5;entryDx=0;entryDy=0;fontStyle=1" parent="IHCGl6r4kFkxUqH40hnX-1" source="gUQUB_aHqahPkXjqELlY-153" target="gUQUB_aHqahPkXjqELlY-152" edge="1">
          <mxGeometry relative="1" as="geometry">
            <mxPoint x="1755" y="793" as="targetPoint" />
          </mxGeometry>
        </mxCell>
        <mxCell id="gUQUB_aHqahPkXjqELlY-159" value="`x_{\text{desired}}`" style="edgeLabel;html=1;align=center;verticalAlign=middle;resizable=0;points=[];fontStyle=1" parent="gUQUB_aHqahPkXjqELlY-158" vertex="1" connectable="0">
          <mxGeometry x="0.2" y="-1" relative="1" as="geometry">
            <mxPoint x="-6" y="-1" as="offset" />
          </mxGeometry>
        </mxCell>
        <mxCell id="gUQUB_aHqahPkXjqELlY-160" style="edgeStyle=orthogonalEdgeStyle;rounded=0;orthogonalLoop=1;jettySize=auto;html=1;entryX=0.75;entryY=0;entryDx=0;entryDy=0;fontStyle=1;flowAnimation=0;shadow=0;" parent="IHCGl6r4kFkxUqH40hnX-1" source="gUQUB_aHqahPkXjqELlY-162" target="gUQUB_aHqahPkXjqELlY-72" edge="1">
          <mxGeometry relative="1" as="geometry">
            <mxPoint x="1940" y="890" as="targetPoint" />
            <Array as="points">
              <mxPoint x="1800" y="870" />
              <mxPoint x="1190" y="870" />
            </Array>
          </mxGeometry>
        </mxCell>
        <mxCell id="gUQUB_aHqahPkXjqELlY-161" value="`F`" style="edgeLabel;html=1;align=center;verticalAlign=middle;resizable=0;points=[];fontStyle=1" parent="gUQUB_aHqahPkXjqELlY-160" vertex="1" connectable="0">
          <mxGeometry x="-0.0156" relative="1" as="geometry">
            <mxPoint x="-285" as="offset" />
          </mxGeometry>
        </mxCell>
        <mxCell id="gUQUB_aHqahPkXjqELlY-162" value="&lt;span style=&quot;font-size: 10px;&quot;&gt;Servo Motors&lt;/span&gt;&lt;div&gt;&lt;span style=&quot;font-size: 10px;&quot;&gt;(Joints)&lt;/span&gt;&lt;/div&gt;" style="rounded=0;whiteSpace=wrap;html=1;fontStyle=1" parent="IHCGl6r4kFkxUqH40hnX-1" vertex="1">
          <mxGeometry x="1760" y="820" width="80" height="40" as="geometry" />
        </mxCell>
        <mxCell id="gUQUB_aHqahPkXjqELlY-163" style="edgeStyle=orthogonalEdgeStyle;rounded=0;orthogonalLoop=1;jettySize=auto;html=1;entryX=0;entryY=0.75;entryDx=0;entryDy=0;fontStyle=1;exitX=1;exitY=0.5;exitDx=0;exitDy=0;" parent="IHCGl6r4kFkxUqH40hnX-1" source="gUQUB_aHqahPkXjqELlY-72" target="gUQUB_aHqahPkXjqELlY-169" edge="1">
          <mxGeometry relative="1" as="geometry">
            <mxPoint x="1900" y="910" as="sourcePoint" />
            <Array as="points">
              <mxPoint x="1210" y="920" />
            </Array>
          </mxGeometry>
        </mxCell>
        <mxCell id="gUQUB_aHqahPkXjqELlY-164" value="`F_{\text{actual}}`" style="edgeLabel;html=1;align=center;verticalAlign=middle;resizable=0;points=[];fontStyle=1" parent="gUQUB_aHqahPkXjqELlY-163" vertex="1" connectable="0">
          <mxGeometry x="-0.0222" y="1" relative="1" as="geometry">
            <mxPoint x="-224" y="-1" as="offset" />
          </mxGeometry>
        </mxCell>
        <mxCell id="gUQUB_aHqahPkXjqELlY-166" style="edgeStyle=orthogonalEdgeStyle;rounded=0;orthogonalLoop=1;jettySize=auto;html=1;entryX=0.5;entryY=1;entryDx=0;entryDy=0;fontStyle=1;exitX=0;exitY=0.25;exitDx=0;exitDy=0;" parent="IHCGl6r4kFkxUqH40hnX-1" source="gUQUB_aHqahPkXjqELlY-169" target="gUQUB_aHqahPkXjqELlY-149" edge="1">
          <mxGeometry relative="1" as="geometry" />
        </mxCell>
        <mxCell id="gUQUB_aHqahPkXjqELlY-167" style="edgeStyle=orthogonalEdgeStyle;rounded=0;orthogonalLoop=1;jettySize=auto;html=1;entryX=0.75;entryY=1;entryDx=0;entryDy=0;fontStyle=1;exitX=0;exitY=0.25;exitDx=0;exitDy=0;" parent="IHCGl6r4kFkxUqH40hnX-1" source="gUQUB_aHqahPkXjqELlY-169" target="gUQUB_aHqahPkXjqELlY-148" edge="1">
          <mxGeometry relative="1" as="geometry" />
        </mxCell>
        <mxCell id="gUQUB_aHqahPkXjqELlY-168" value="`F_\text{measured}`" style="edgeLabel;html=1;align=center;verticalAlign=middle;resizable=0;points=[];fontStyle=1" parent="gUQUB_aHqahPkXjqELlY-167" vertex="1" connectable="0">
          <mxGeometry x="0.0509" relative="1" as="geometry">
            <mxPoint x="10" as="offset" />
          </mxGeometry>
        </mxCell>
        <mxCell id="gUQUB_aHqahPkXjqELlY-169" value="&lt;span style=&quot;font-size: 10px;&quot;&gt;FSR&lt;/span&gt;" style="rounded=0;whiteSpace=wrap;html=1;fillColor=#f5f5f5;strokeColor=#666666;fontStyle=1;fillStyle=auto;fontColor=#333333;" parent="IHCGl6r4kFkxUqH40hnX-1" vertex="1">
          <mxGeometry x="1760" y="890" width="80" height="40" as="geometry" />
        </mxCell>
        <mxCell id="gUQUB_aHqahPkXjqELlY-170" style="edgeStyle=orthogonalEdgeStyle;rounded=0;orthogonalLoop=1;jettySize=auto;html=1;entryX=0;entryY=0.5;entryDx=0;entryDy=0;fontStyle=1" parent="IHCGl6r4kFkxUqH40hnX-1" target="gUQUB_aHqahPkXjqELlY-100" edge="1">
          <mxGeometry relative="1" as="geometry">
            <mxPoint x="1190" y="1100" as="sourcePoint" />
            <mxPoint x="1290" y="1100" as="targetPoint" />
            <Array as="points">
              <mxPoint x="1190" y="1050" />
            </Array>
          </mxGeometry>
        </mxCell>
        <mxCell id="gUQUB_aHqahPkXjqELlY-171" value="`\text{Goal Pose}`" style="edgeLabel;html=1;align=center;verticalAlign=middle;resizable=0;points=[];fontStyle=1" parent="gUQUB_aHqahPkXjqELlY-170" vertex="1" connectable="0">
          <mxGeometry x="-0.1917" relative="1" as="geometry">
            <mxPoint y="11" as="offset" />
          </mxGeometry>
        </mxCell>
        <mxCell id="gUQUB_aHqahPkXjqELlY-175" style="edgeStyle=orthogonalEdgeStyle;rounded=0;orthogonalLoop=1;jettySize=auto;html=1;entryX=0.25;entryY=1;entryDx=0;entryDy=0;fontStyle=1" parent="IHCGl6r4kFkxUqH40hnX-1" target="gUQUB_aHqahPkXjqELlY-148" edge="1">
          <mxGeometry relative="1" as="geometry">
            <Array as="points">
              <mxPoint x="1290" y="890" />
              <mxPoint x="1400" y="890" />
            </Array>
            <mxPoint x="1280" y="890" as="sourcePoint" />
          </mxGeometry>
        </mxCell>
        <mxCell id="gUQUB_aHqahPkXjqELlY-176" value="`(x_{\text{monica}}-x_{\text{ross}})`" style="edgeLabel;html=1;align=center;verticalAlign=middle;resizable=0;points=[];fontStyle=1" parent="gUQUB_aHqahPkXjqELlY-175" vertex="1" connectable="0">
          <mxGeometry x="-0.2367" relative="1" as="geometry">
            <mxPoint x="-9" as="offset" />
          </mxGeometry>
        </mxCell>
        <mxCell id="gUQUB_aHqahPkXjqELlY-178" value="`\theta_{\text{estimated, left}} \text{(Joint Space)}`" style="edgeLabel;html=1;align=center;verticalAlign=middle;resizable=0;points=[];fontStyle=1" parent="IHCGl6r4kFkxUqH40hnX-1" vertex="1" connectable="0">
          <mxGeometry x="1660" y="1210" as="geometry" />
        </mxCell>
        <mxCell id="gUQUB_aHqahPkXjqELlY-179" style="edgeStyle=orthogonalEdgeStyle;rounded=0;orthogonalLoop=1;jettySize=auto;html=1;entryX=0.5;entryY=1;entryDx=0;entryDy=0;fontStyle=1" parent="IHCGl6r4kFkxUqH40hnX-1" source="gUQUB_aHqahPkXjqELlY-181" target="gUQUB_aHqahPkXjqELlY-100" edge="1">
          <mxGeometry relative="1" as="geometry" />
        </mxCell>
        <mxCell id="gUQUB_aHqahPkXjqELlY-180" value="`\text{Pose}_{\text{filtered}}`" style="edgeLabel;html=1;align=center;verticalAlign=middle;resizable=0;points=[];fontStyle=1" parent="gUQUB_aHqahPkXjqELlY-179" vertex="1" connectable="0">
          <mxGeometry x="-0.1486" y="-1" relative="1" as="geometry">
            <mxPoint as="offset" />
          </mxGeometry>
        </mxCell>
        <mxCell id="gUQUB_aHqahPkXjqELlY-181" value="&lt;font style=&quot;font-size: 10px;&quot;&gt;EKF&lt;/font&gt;" style="rounded=0;whiteSpace=wrap;html=1;fontStyle=1" parent="IHCGl6r4kFkxUqH40hnX-1" vertex="1">
          <mxGeometry x="1240" y="1120" width="80" height="40" as="geometry" />
        </mxCell>
        <mxCell id="gUQUB_aHqahPkXjqELlY-182" value="&lt;font style=&quot;font-size: 10px;&quot;&gt;IMU&lt;/font&gt;" style="rounded=0;whiteSpace=wrap;html=1;fillColor=#f5f5f5;strokeColor=#666666;fontStyle=1;fillStyle=auto;fontColor=#333333;" parent="IHCGl6r4kFkxUqH40hnX-1" vertex="1">
          <mxGeometry x="1240" y="1200" width="80" height="40" as="geometry" />
        </mxCell>
        <mxCell id="gUQUB_aHqahPkXjqELlY-183" value="&lt;span&gt;&lt;font style=&quot;font-size: 18px;&quot;&gt;MOBILE BASE&lt;/font&gt;&lt;/span&gt;" style="text;html=1;align=left;verticalAlign=middle;resizable=0;points=[];autosize=1;strokeColor=none;fillColor=none;fontStyle=1" parent="IHCGl6r4kFkxUqH40hnX-1" vertex="1">
          <mxGeometry x="1230" y="930" width="140" height="40" as="geometry" />
        </mxCell>
        <mxCell id="gUQUB_aHqahPkXjqELlY-185" value="&lt;span&gt;&lt;font style=&quot;font-size: 18px;&quot;&gt;MANIPULATOR&lt;/font&gt;&lt;/span&gt;" style="text;html=1;align=left;verticalAlign=middle;resizable=0;points=[];autosize=1;strokeColor=none;fillColor=none;fontStyle=1" parent="IHCGl6r4kFkxUqH40hnX-1" vertex="1">
          <mxGeometry x="1370" y="690" width="150" height="40" as="geometry" />
        </mxCell>
      </root>
    </mxGraphModel>
  </diagram>
  <diagram name="single_agent_simple" id="uiFt27I3VUQpk2nIwxVn">
    <mxGraphModel dx="1106" dy="995" grid="1" gridSize="10" guides="1" tooltips="1" connect="1" arrows="1" fold="1" page="1" pageScale="1" pageWidth="1100" pageHeight="850" math="1" shadow="0">
      <root>
        <mxCell id="7j66uzySZD4gq9qvuvEN-0" />
        <mxCell id="7j66uzySZD4gq9qvuvEN-1" parent="7j66uzySZD4gq9qvuvEN-0" />
        <mxCell id="7j66uzySZD4gq9qvuvEN-2" value="" style="rounded=1;whiteSpace=wrap;html=1;fillColor=#f8cecc;strokeColor=#b85450;arcSize=4;fontStyle=1" vertex="1" parent="7j66uzySZD4gq9qvuvEN-1">
          <mxGeometry x="330" y="230" width="480" height="220" as="geometry" />
        </mxCell>
        <mxCell id="7j66uzySZD4gq9qvuvEN-3" value="" style="rounded=1;whiteSpace=wrap;html=1;fillColor=#e1d5e7;strokeColor=#9673a6;arcSize=10;fontStyle=1" vertex="1" parent="7j66uzySZD4gq9qvuvEN-1">
          <mxGeometry x="190" y="230" width="100" height="140" as="geometry" />
        </mxCell>
        <mxCell id="7j66uzySZD4gq9qvuvEN-4" value="" style="rounded=1;whiteSpace=wrap;html=1;fillColor=#d5e8d4;strokeColor=#82b366;arcSize=3;fontStyle=1" vertex="1" parent="7j66uzySZD4gq9qvuvEN-1">
          <mxGeometry x="190" y="470" width="660" height="290" as="geometry" />
        </mxCell>
        <mxCell id="7j66uzySZD4gq9qvuvEN-5" style="edgeStyle=orthogonalEdgeStyle;rounded=0;orthogonalLoop=1;jettySize=auto;html=1;entryX=0;entryY=0.5;entryDx=0;entryDy=0;fontStyle=1" edge="1" parent="7j66uzySZD4gq9qvuvEN-1" source="7j66uzySZD4gq9qvuvEN-9" target="7j66uzySZD4gq9qvuvEN-10">
          <mxGeometry relative="1" as="geometry" />
        </mxCell>
        <mxCell id="7j66uzySZD4gq9qvuvEN-6" value="`v_{cmd}`" style="edgeLabel;html=1;align=center;verticalAlign=middle;resizable=0;points=[];fontStyle=1" vertex="1" connectable="0" parent="7j66uzySZD4gq9qvuvEN-5">
          <mxGeometry x="-0.0667" y="-2" relative="1" as="geometry">
            <mxPoint x="2" y="8" as="offset" />
          </mxGeometry>
        </mxCell>
        <mxCell id="7j66uzySZD4gq9qvuvEN-7" style="edgeStyle=orthogonalEdgeStyle;rounded=0;orthogonalLoop=1;jettySize=auto;html=1;entryX=0.5;entryY=1;entryDx=0;entryDy=0;fontStyle=1" edge="1" parent="7j66uzySZD4gq9qvuvEN-1" source="7j66uzySZD4gq9qvuvEN-9" target="7j66uzySZD4gq9qvuvEN-57">
          <mxGeometry relative="1" as="geometry">
            <Array as="points">
              <mxPoint x="240" y="510" />
              <mxPoint x="380" y="510" />
            </Array>
          </mxGeometry>
        </mxCell>
        <mxCell id="7j66uzySZD4gq9qvuvEN-8" value="`\text{Covariance}`" style="edgeLabel;html=1;align=center;verticalAlign=middle;resizable=0;points=[];fontStyle=1" vertex="1" connectable="0" parent="7j66uzySZD4gq9qvuvEN-7">
          <mxGeometry x="-0.424" y="-3" relative="1" as="geometry">
            <mxPoint y="-3" as="offset" />
          </mxGeometry>
        </mxCell>
        <mxCell id="7j66uzySZD4gq9qvuvEN-9" value="&lt;font style=&quot;font-size: 10px;&quot;&gt;Nav2&lt;/font&gt;" style="rounded=0;whiteSpace=wrap;html=1;fontStyle=1" vertex="1" parent="7j66uzySZD4gq9qvuvEN-1">
          <mxGeometry x="200" y="540" width="80" height="40" as="geometry" />
        </mxCell>
        <mxCell id="7j66uzySZD4gq9qvuvEN-10" value="&lt;font style=&quot;font-size: 10px;&quot;&gt;Robot Inverse Kinematics&lt;/font&gt;" style="rounded=0;whiteSpace=wrap;html=1;fontStyle=1" vertex="1" parent="7j66uzySZD4gq9qvuvEN-1">
          <mxGeometry x="340" y="570" width="80" height="40" as="geometry" />
        </mxCell>
        <mxCell id="7j66uzySZD4gq9qvuvEN-11" style="edgeStyle=orthogonalEdgeStyle;rounded=0;orthogonalLoop=1;jettySize=auto;html=1;entryX=0;entryY=0.5;entryDx=0;entryDy=0;fontStyle=1" edge="1" parent="7j66uzySZD4gq9qvuvEN-1" source="7j66uzySZD4gq9qvuvEN-13" target="7j66uzySZD4gq9qvuvEN-21">
          <mxGeometry relative="1" as="geometry" />
        </mxCell>
        <mxCell id="7j66uzySZD4gq9qvuvEN-12" value="`\text{PWM}`" style="edgeLabel;html=1;align=center;verticalAlign=middle;resizable=0;points=[];fontStyle=1" vertex="1" connectable="0" parent="7j66uzySZD4gq9qvuvEN-11">
          <mxGeometry x="-0.3524" relative="1" as="geometry">
            <mxPoint x="11" as="offset" />
          </mxGeometry>
        </mxCell>
        <mxCell id="7j66uzySZD4gq9qvuvEN-13" value="&lt;font style=&quot;font-size: 10px;&quot;&gt;PID (Left)&lt;/font&gt;" style="rounded=0;whiteSpace=wrap;html=1;fontStyle=1" vertex="1" parent="7j66uzySZD4gq9qvuvEN-1">
          <mxGeometry x="580" y="540" width="80" height="40" as="geometry" />
        </mxCell>
        <mxCell id="7j66uzySZD4gq9qvuvEN-14" style="edgeStyle=orthogonalEdgeStyle;rounded=0;orthogonalLoop=1;jettySize=auto;html=1;entryX=0;entryY=0.5;entryDx=0;entryDy=0;fontStyle=1" edge="1" parent="7j66uzySZD4gq9qvuvEN-1" source="7j66uzySZD4gq9qvuvEN-16" target="7j66uzySZD4gq9qvuvEN-13">
          <mxGeometry relative="1" as="geometry" />
        </mxCell>
        <mxCell id="7j66uzySZD4gq9qvuvEN-15" value="`v_{\text{error}}`" style="edgeLabel;html=1;align=center;verticalAlign=middle;resizable=0;points=[];fontStyle=1" vertex="1" connectable="0" parent="7j66uzySZD4gq9qvuvEN-14">
          <mxGeometry x="-0.181" y="-3" relative="1" as="geometry">
            <mxPoint x="5" y="-3" as="offset" />
          </mxGeometry>
        </mxCell>
        <mxCell id="7j66uzySZD4gq9qvuvEN-16" value="" style="verticalLabelPosition=bottom;verticalAlign=top;html=1;shape=mxgraph.flowchart.or;fontStyle=1" vertex="1" parent="7j66uzySZD4gq9qvuvEN-1">
          <mxGeometry x="480" y="540" width="40" height="40" as="geometry" />
        </mxCell>
        <mxCell id="7j66uzySZD4gq9qvuvEN-17" style="edgeStyle=orthogonalEdgeStyle;rounded=0;orthogonalLoop=1;jettySize=auto;html=1;entryX=0;entryY=0.5;entryDx=0;entryDy=0;fontStyle=1" edge="1" parent="7j66uzySZD4gq9qvuvEN-1" source="7j66uzySZD4gq9qvuvEN-19" target="7j66uzySZD4gq9qvuvEN-29">
          <mxGeometry relative="1" as="geometry" />
        </mxCell>
        <mxCell id="7j66uzySZD4gq9qvuvEN-18" value="`v_{\text{error}}`" style="edgeLabel;html=1;align=center;verticalAlign=middle;resizable=0;points=[];fontStyle=1" vertex="1" connectable="0" parent="7j66uzySZD4gq9qvuvEN-17">
          <mxGeometry x="0.1619" y="-1" relative="1" as="geometry">
            <mxPoint x="-5" y="-1" as="offset" />
          </mxGeometry>
        </mxCell>
        <mxCell id="7j66uzySZD4gq9qvuvEN-19" value="" style="verticalLabelPosition=bottom;verticalAlign=top;html=1;shape=mxgraph.flowchart.or;fontStyle=1" vertex="1" parent="7j66uzySZD4gq9qvuvEN-1">
          <mxGeometry x="480" y="600" width="40" height="40" as="geometry" />
        </mxCell>
        <mxCell id="7j66uzySZD4gq9qvuvEN-20" style="edgeStyle=orthogonalEdgeStyle;rounded=0;orthogonalLoop=1;jettySize=auto;html=1;entryX=0.5;entryY=1;entryDx=0;entryDy=0;fontStyle=1" edge="1" parent="7j66uzySZD4gq9qvuvEN-1" source="7j66uzySZD4gq9qvuvEN-21" target="7j66uzySZD4gq9qvuvEN-26">
          <mxGeometry relative="1" as="geometry" />
        </mxCell>
        <mxCell id="7j66uzySZD4gq9qvuvEN-21" value="&lt;span style=&quot;font-size: 10px;&quot;&gt;Drive Motors (Left)&lt;/span&gt;" style="rounded=0;whiteSpace=wrap;html=1;fontStyle=1" vertex="1" parent="7j66uzySZD4gq9qvuvEN-1">
          <mxGeometry x="720" y="540" width="80" height="40" as="geometry" />
        </mxCell>
        <mxCell id="7j66uzySZD4gq9qvuvEN-22" style="edgeStyle=orthogonalEdgeStyle;rounded=0;orthogonalLoop=1;jettySize=auto;html=1;entryX=1;entryY=0.5;entryDx=0;entryDy=0;exitX=0;exitY=0.5;exitDx=0;exitDy=0;fontStyle=1" edge="1" parent="7j66uzySZD4gq9qvuvEN-1" source="7j66uzySZD4gq9qvuvEN-26" target="7j66uzySZD4gq9qvuvEN-37">
          <mxGeometry relative="1" as="geometry" />
        </mxCell>
        <mxCell id="7j66uzySZD4gq9qvuvEN-23" value="`\theta_{\text{estimated}}`" style="edgeLabel;html=1;align=center;verticalAlign=middle;resizable=0;points=[];fontStyle=1" vertex="1" connectable="0" parent="7j66uzySZD4gq9qvuvEN-22">
          <mxGeometry x="0.04" y="4" relative="1" as="geometry">
            <mxPoint x="12" y="-4" as="offset" />
          </mxGeometry>
        </mxCell>
        <mxCell id="7j66uzySZD4gq9qvuvEN-24" style="edgeStyle=orthogonalEdgeStyle;rounded=0;orthogonalLoop=1;jettySize=auto;html=1;entryX=1;entryY=0.75;entryDx=0;entryDy=0;exitX=1;exitY=0.5;exitDx=0;exitDy=0;fontStyle=1" edge="1" parent="7j66uzySZD4gq9qvuvEN-1" source="7j66uzySZD4gq9qvuvEN-26" target="7j66uzySZD4gq9qvuvEN-44">
          <mxGeometry relative="1" as="geometry">
            <Array as="points">
              <mxPoint x="840" y="500" />
              <mxPoint x="840" y="740" />
              <mxPoint x="420" y="740" />
            </Array>
          </mxGeometry>
        </mxCell>
        <mxCell id="7j66uzySZD4gq9qvuvEN-25" value="`\theta_{\text{estimated, right}} \text{(Joint Space)}`" style="edgeLabel;html=1;align=center;verticalAlign=middle;resizable=0;points=[];fontStyle=1" vertex="1" connectable="0" parent="7j66uzySZD4gq9qvuvEN-24">
          <mxGeometry x="0.1993" y="4" relative="1" as="geometry">
            <mxPoint x="-80" y="-4" as="offset" />
          </mxGeometry>
        </mxCell>
        <mxCell id="7j66uzySZD4gq9qvuvEN-26" value="&lt;span style=&quot;font-size: 10px;&quot;&gt;Encoder (Left)&lt;/span&gt;" style="rounded=0;whiteSpace=wrap;html=1;fillColor=#f5f5f5;strokeColor=#666666;fontStyle=1;fillStyle=auto;fontColor=#333333;" vertex="1" parent="7j66uzySZD4gq9qvuvEN-1">
          <mxGeometry x="720" y="480" width="80" height="40" as="geometry" />
        </mxCell>
        <mxCell id="7j66uzySZD4gq9qvuvEN-27" style="edgeStyle=orthogonalEdgeStyle;rounded=0;orthogonalLoop=1;jettySize=auto;html=1;entryX=0;entryY=0.5;entryDx=0;entryDy=0;fontStyle=1" edge="1" parent="7j66uzySZD4gq9qvuvEN-1" source="7j66uzySZD4gq9qvuvEN-29" target="7j66uzySZD4gq9qvuvEN-31">
          <mxGeometry relative="1" as="geometry" />
        </mxCell>
        <mxCell id="7j66uzySZD4gq9qvuvEN-28" value="`\text{PWM}`" style="edgeLabel;html=1;align=center;verticalAlign=middle;resizable=0;points=[];fontStyle=1" vertex="1" connectable="0" parent="7j66uzySZD4gq9qvuvEN-27">
          <mxGeometry x="-0.219" y="-1" relative="1" as="geometry">
            <mxPoint x="7" y="-1" as="offset" />
          </mxGeometry>
        </mxCell>
        <mxCell id="7j66uzySZD4gq9qvuvEN-29" value="&lt;font style=&quot;font-size: 10px;&quot;&gt;PID (Right)&lt;/font&gt;" style="rounded=0;whiteSpace=wrap;html=1;fontStyle=1" vertex="1" parent="7j66uzySZD4gq9qvuvEN-1">
          <mxGeometry x="580" y="600" width="80" height="40" as="geometry" />
        </mxCell>
        <mxCell id="7j66uzySZD4gq9qvuvEN-30" style="edgeStyle=orthogonalEdgeStyle;rounded=0;orthogonalLoop=1;jettySize=auto;html=1;entryX=0.5;entryY=0;entryDx=0;entryDy=0;fontStyle=1" edge="1" parent="7j66uzySZD4gq9qvuvEN-1" source="7j66uzySZD4gq9qvuvEN-31" target="7j66uzySZD4gq9qvuvEN-35">
          <mxGeometry relative="1" as="geometry" />
        </mxCell>
        <mxCell id="7j66uzySZD4gq9qvuvEN-31" value="&lt;span style=&quot;font-size: 10px;&quot;&gt;Drive Motors (Right)&lt;/span&gt;" style="rounded=0;whiteSpace=wrap;html=1;fontStyle=1" vertex="1" parent="7j66uzySZD4gq9qvuvEN-1">
          <mxGeometry x="720" y="600" width="80" height="40" as="geometry" />
        </mxCell>
        <mxCell id="7j66uzySZD4gq9qvuvEN-32" style="edgeStyle=orthogonalEdgeStyle;rounded=0;orthogonalLoop=1;jettySize=auto;html=1;entryX=1;entryY=0.5;entryDx=0;entryDy=0;exitX=0;exitY=0.5;exitDx=0;exitDy=0;fontStyle=1" edge="1" parent="7j66uzySZD4gq9qvuvEN-1" source="7j66uzySZD4gq9qvuvEN-35" target="7j66uzySZD4gq9qvuvEN-36">
          <mxGeometry relative="1" as="geometry" />
        </mxCell>
        <mxCell id="7j66uzySZD4gq9qvuvEN-33" value="`\theta_{\text{estimated}}`" style="edgeLabel;html=1;align=center;verticalAlign=middle;resizable=0;points=[];fontStyle=1" vertex="1" connectable="0" parent="7j66uzySZD4gq9qvuvEN-32">
          <mxGeometry x="0.0857" y="1" relative="1" as="geometry">
            <mxPoint x="14" y="-1" as="offset" />
          </mxGeometry>
        </mxCell>
        <mxCell id="7j66uzySZD4gq9qvuvEN-34" style="edgeStyle=orthogonalEdgeStyle;rounded=0;orthogonalLoop=1;jettySize=auto;html=1;exitX=1;exitY=0.5;exitDx=0;exitDy=0;entryX=1;entryY=0.25;entryDx=0;entryDy=0;fontStyle=1" edge="1" parent="7j66uzySZD4gq9qvuvEN-1" source="7j66uzySZD4gq9qvuvEN-35" target="7j66uzySZD4gq9qvuvEN-44">
          <mxGeometry relative="1" as="geometry">
            <mxPoint x="370" y="710" as="targetPoint" />
            <Array as="points">
              <mxPoint x="820" y="680" />
              <mxPoint x="820" y="720" />
              <mxPoint x="420" y="720" />
            </Array>
          </mxGeometry>
        </mxCell>
        <mxCell id="7j66uzySZD4gq9qvuvEN-35" value="&lt;span style=&quot;font-size: 10px;&quot;&gt;Encoder (Left)&lt;/span&gt;" style="rounded=0;whiteSpace=wrap;html=1;fillColor=#f5f5f5;strokeColor=#666666;fontStyle=1;fillStyle=auto;fontColor=#333333;" vertex="1" parent="7j66uzySZD4gq9qvuvEN-1">
          <mxGeometry x="720" y="660" width="80" height="40" as="geometry" />
        </mxCell>
        <mxCell id="7j66uzySZD4gq9qvuvEN-36" value="&lt;span style=&quot;font-size: 10px;&quot;&gt;`\frac{d}{dt}`&lt;/span&gt;" style="rounded=0;whiteSpace=wrap;html=1;fontStyle=1" vertex="1" parent="7j66uzySZD4gq9qvuvEN-1">
          <mxGeometry x="580" y="660" width="40" height="40" as="geometry" />
        </mxCell>
        <mxCell id="7j66uzySZD4gq9qvuvEN-37" value="&lt;span style=&quot;font-size: 10px;&quot;&gt;`\frac{d}{dt}`&lt;/span&gt;" style="rounded=0;whiteSpace=wrap;html=1;fontStyle=1" vertex="1" parent="7j66uzySZD4gq9qvuvEN-1">
          <mxGeometry x="580" y="480" width="40" height="40" as="geometry" />
        </mxCell>
        <mxCell id="7j66uzySZD4gq9qvuvEN-38" style="edgeStyle=orthogonalEdgeStyle;rounded=0;orthogonalLoop=1;jettySize=auto;html=1;entryX=0.5;entryY=0;entryDx=0;entryDy=0;entryPerimeter=0;fontStyle=1" edge="1" parent="7j66uzySZD4gq9qvuvEN-1" source="7j66uzySZD4gq9qvuvEN-37" target="7j66uzySZD4gq9qvuvEN-16">
          <mxGeometry relative="1" as="geometry" />
        </mxCell>
        <mxCell id="7j66uzySZD4gq9qvuvEN-39" value="`v_{\text{estimated}}`" style="edgeLabel;html=1;align=center;verticalAlign=middle;resizable=0;points=[];fontStyle=1" vertex="1" connectable="0" parent="7j66uzySZD4gq9qvuvEN-38">
          <mxGeometry x="-0.2951" y="2" relative="1" as="geometry">
            <mxPoint y="-2" as="offset" />
          </mxGeometry>
        </mxCell>
        <mxCell id="7j66uzySZD4gq9qvuvEN-40" style="edgeStyle=orthogonalEdgeStyle;rounded=0;orthogonalLoop=1;jettySize=auto;html=1;entryX=0.5;entryY=1;entryDx=0;entryDy=0;entryPerimeter=0;fontStyle=1" edge="1" parent="7j66uzySZD4gq9qvuvEN-1" source="7j66uzySZD4gq9qvuvEN-36" target="7j66uzySZD4gq9qvuvEN-19">
          <mxGeometry relative="1" as="geometry" />
        </mxCell>
        <mxCell id="7j66uzySZD4gq9qvuvEN-41" value="`v_{\text{estimated}}`" style="edgeLabel;html=1;align=center;verticalAlign=middle;resizable=0;points=[];fontStyle=1" vertex="1" connectable="0" parent="7j66uzySZD4gq9qvuvEN-40">
          <mxGeometry x="-0.1431" y="1" relative="1" as="geometry">
            <mxPoint x="11" y="-1" as="offset" />
          </mxGeometry>
        </mxCell>
        <mxCell id="7j66uzySZD4gq9qvuvEN-42" style="edgeStyle=orthogonalEdgeStyle;rounded=0;orthogonalLoop=1;jettySize=auto;html=1;entryX=0.75;entryY=1;entryDx=0;entryDy=0;exitX=0.5;exitY=0;exitDx=0;exitDy=0;fontStyle=1" edge="1" parent="7j66uzySZD4gq9qvuvEN-1" source="7j66uzySZD4gq9qvuvEN-44" target="7j66uzySZD4gq9qvuvEN-90">
          <mxGeometry relative="1" as="geometry" />
        </mxCell>
        <mxCell id="7j66uzySZD4gq9qvuvEN-43" value="`\text{Pose}_{\text{wheel}}`" style="edgeLabel;html=1;align=center;verticalAlign=middle;resizable=0;points=[];fontStyle=1" vertex="1" connectable="0" parent="7j66uzySZD4gq9qvuvEN-42">
          <mxGeometry x="0.4638" y="-1" relative="1" as="geometry">
            <mxPoint x="39" y="1" as="offset" />
          </mxGeometry>
        </mxCell>
        <mxCell id="7j66uzySZD4gq9qvuvEN-44" value="&lt;font style=&quot;font-size: 10px;&quot;&gt;Robot Forward Kinematics&lt;/font&gt;" style="rounded=0;whiteSpace=wrap;html=1;fontStyle=1" vertex="1" parent="7j66uzySZD4gq9qvuvEN-1">
          <mxGeometry x="340" y="710" width="80" height="40" as="geometry" />
        </mxCell>
        <mxCell id="7j66uzySZD4gq9qvuvEN-45" style="edgeStyle=orthogonalEdgeStyle;rounded=0;orthogonalLoop=1;jettySize=auto;html=1;entryX=0;entryY=0.5;entryDx=0;entryDy=0;entryPerimeter=0;exitX=0.5;exitY=0;exitDx=0;exitDy=0;fontStyle=1" edge="1" parent="7j66uzySZD4gq9qvuvEN-1" source="7j66uzySZD4gq9qvuvEN-10" target="7j66uzySZD4gq9qvuvEN-16">
          <mxGeometry relative="1" as="geometry">
            <Array as="points">
              <mxPoint x="380" y="560" />
            </Array>
          </mxGeometry>
        </mxCell>
        <mxCell id="7j66uzySZD4gq9qvuvEN-46" value="`v_{desired}`" style="edgeLabel;html=1;align=center;verticalAlign=middle;resizable=0;points=[];fontStyle=1" vertex="1" connectable="0" parent="7j66uzySZD4gq9qvuvEN-45">
          <mxGeometry x="0.0762" y="1" relative="1" as="geometry">
            <mxPoint x="11" y="1" as="offset" />
          </mxGeometry>
        </mxCell>
        <mxCell id="7j66uzySZD4gq9qvuvEN-47" style="edgeStyle=orthogonalEdgeStyle;rounded=0;orthogonalLoop=1;jettySize=auto;html=1;entryX=0;entryY=0.5;entryDx=0;entryDy=0;entryPerimeter=0;exitX=0.5;exitY=1;exitDx=0;exitDy=0;fontStyle=1" edge="1" parent="7j66uzySZD4gq9qvuvEN-1" source="7j66uzySZD4gq9qvuvEN-10" target="7j66uzySZD4gq9qvuvEN-19">
          <mxGeometry relative="1" as="geometry">
            <Array as="points">
              <mxPoint x="380" y="620" />
            </Array>
          </mxGeometry>
        </mxCell>
        <mxCell id="7j66uzySZD4gq9qvuvEN-48" value="`v_{desired}`" style="edgeLabel;html=1;align=center;verticalAlign=middle;resizable=0;points=[];fontStyle=1" vertex="1" connectable="0" parent="7j66uzySZD4gq9qvuvEN-47">
          <mxGeometry x="0.2521" relative="1" as="geometry">
            <mxPoint as="offset" />
          </mxGeometry>
        </mxCell>
        <mxCell id="7j66uzySZD4gq9qvuvEN-49" style="edgeStyle=orthogonalEdgeStyle;rounded=0;orthogonalLoop=1;jettySize=auto;html=1;exitX=0.25;exitY=0;exitDx=0;exitDy=0;entryX=0.25;entryY=1;entryDx=0;entryDy=0;fontStyle=1" edge="1" parent="7j66uzySZD4gq9qvuvEN-1" source="7j66uzySZD4gq9qvuvEN-91" target="7j66uzySZD4gq9qvuvEN-90">
          <mxGeometry relative="1" as="geometry" />
        </mxCell>
        <mxCell id="7j66uzySZD4gq9qvuvEN-50" value="`\text{Pose}_{\text{IMU}}`" style="edgeLabel;html=1;align=center;verticalAlign=middle;resizable=0;points=[];fontStyle=1" vertex="1" connectable="0" parent="7j66uzySZD4gq9qvuvEN-49">
          <mxGeometry x="-0.1917" relative="1" as="geometry">
            <mxPoint x="1" y="-4" as="offset" />
          </mxGeometry>
        </mxCell>
        <mxCell id="7j66uzySZD4gq9qvuvEN-51" style="edgeStyle=orthogonalEdgeStyle;rounded=0;orthogonalLoop=1;jettySize=auto;html=1;entryX=0;entryY=0.5;entryDx=0;entryDy=0;fontStyle=1" edge="1" parent="7j66uzySZD4gq9qvuvEN-1" source="7j66uzySZD4gq9qvuvEN-57" target="7j66uzySZD4gq9qvuvEN-58">
          <mxGeometry relative="1" as="geometry" />
        </mxCell>
        <mxCell id="7j66uzySZD4gq9qvuvEN-52" value="`\mathbf{D}`" style="edgeLabel;html=1;align=center;verticalAlign=middle;resizable=0;points=[];fontStyle=1" vertex="1" connectable="0" parent="7j66uzySZD4gq9qvuvEN-51">
          <mxGeometry x="-0.0567" relative="1" as="geometry">
            <mxPoint as="offset" />
          </mxGeometry>
        </mxCell>
        <mxCell id="7j66uzySZD4gq9qvuvEN-53" style="edgeStyle=orthogonalEdgeStyle;rounded=0;orthogonalLoop=1;jettySize=auto;html=1;exitX=1;exitY=0.25;exitDx=0;exitDy=0;entryX=0;entryY=0.25;entryDx=0;entryDy=0;fontStyle=1" edge="1" parent="7j66uzySZD4gq9qvuvEN-1" source="7j66uzySZD4gq9qvuvEN-57" target="7j66uzySZD4gq9qvuvEN-58">
          <mxGeometry relative="1" as="geometry" />
        </mxCell>
        <mxCell id="7j66uzySZD4gq9qvuvEN-54" value="`\mathbf{K}`" style="edgeLabel;html=1;align=center;verticalAlign=middle;resizable=0;points=[];fontStyle=1" vertex="1" connectable="0" parent="7j66uzySZD4gq9qvuvEN-53">
          <mxGeometry x="-0.0905" relative="1" as="geometry">
            <mxPoint as="offset" />
          </mxGeometry>
        </mxCell>
        <mxCell id="7j66uzySZD4gq9qvuvEN-55" style="edgeStyle=orthogonalEdgeStyle;rounded=0;orthogonalLoop=1;jettySize=auto;html=1;exitX=1;exitY=0.75;exitDx=0;exitDy=0;entryX=0;entryY=0.75;entryDx=0;entryDy=0;fontStyle=1" edge="1" parent="7j66uzySZD4gq9qvuvEN-1" source="7j66uzySZD4gq9qvuvEN-57" target="7j66uzySZD4gq9qvuvEN-58">
          <mxGeometry relative="1" as="geometry" />
        </mxCell>
        <mxCell id="7j66uzySZD4gq9qvuvEN-56" value="`\mathbf{M}`" style="edgeLabel;html=1;align=center;verticalAlign=middle;resizable=0;points=[];fontStyle=1" vertex="1" connectable="0" parent="7j66uzySZD4gq9qvuvEN-55">
          <mxGeometry x="0.1655" y="-1" relative="1" as="geometry">
            <mxPoint x="-5" y="-1" as="offset" />
          </mxGeometry>
        </mxCell>
        <mxCell id="7j66uzySZD4gq9qvuvEN-57" value="&lt;font style=&quot;font-size: 10px;&quot;&gt;Parameterization&lt;/font&gt;&lt;div&gt;&lt;font style=&quot;font-size: 10px;&quot;&gt;Node&lt;/font&gt;&lt;/div&gt;" style="rounded=0;whiteSpace=wrap;html=1;fontStyle=1" vertex="1" parent="7j66uzySZD4gq9qvuvEN-1">
          <mxGeometry x="340" y="260" width="80" height="80" as="geometry" />
        </mxCell>
        <mxCell id="7j66uzySZD4gq9qvuvEN-58" value="&lt;span style=&quot;font-size: 10px;&quot;&gt;Admittance Controller&lt;/span&gt;" style="rounded=0;whiteSpace=wrap;html=1;fontStyle=1" vertex="1" parent="7j66uzySZD4gq9qvuvEN-1">
          <mxGeometry x="480" y="260" width="80" height="80" as="geometry" />
        </mxCell>
        <mxCell id="7j66uzySZD4gq9qvuvEN-59" style="edgeStyle=orthogonalEdgeStyle;rounded=0;orthogonalLoop=1;jettySize=auto;html=1;entryX=0.5;entryY=0;entryDx=0;entryDy=0;fontStyle=1" edge="1" parent="7j66uzySZD4gq9qvuvEN-1" source="7j66uzySZD4gq9qvuvEN-61" target="7j66uzySZD4gq9qvuvEN-71">
          <mxGeometry relative="1" as="geometry" />
        </mxCell>
        <mxCell id="7j66uzySZD4gq9qvuvEN-60" value="`\mathbf{\theta}_{\text{desired}}`" style="edgeLabel;html=1;align=center;verticalAlign=middle;resizable=0;points=[];fontStyle=1" vertex="1" connectable="0" parent="7j66uzySZD4gq9qvuvEN-59">
          <mxGeometry x="0.64" relative="1" as="geometry">
            <mxPoint y="-11" as="offset" />
          </mxGeometry>
        </mxCell>
        <mxCell id="7j66uzySZD4gq9qvuvEN-61" value="&lt;span style=&quot;font-size: 10px;&quot;&gt;Inverse Kinematics&lt;/span&gt;" style="rounded=0;whiteSpace=wrap;html=1;fontStyle=1" vertex="1" parent="7j66uzySZD4gq9qvuvEN-1">
          <mxGeometry x="720" y="260" width="80" height="40" as="geometry" />
        </mxCell>
        <mxCell id="7j66uzySZD4gq9qvuvEN-62" value="" style="verticalLabelPosition=bottom;verticalAlign=top;html=1;shape=mxgraph.flowchart.or;fontStyle=1" vertex="1" parent="7j66uzySZD4gq9qvuvEN-1">
          <mxGeometry x="620" y="260" width="40" height="40" as="geometry" />
        </mxCell>
        <mxCell id="7j66uzySZD4gq9qvuvEN-63" style="edgeStyle=orthogonalEdgeStyle;rounded=0;orthogonalLoop=1;jettySize=auto;html=1;entryX=0.5;entryY=0;entryDx=0;entryDy=0;entryPerimeter=0;exitX=0.5;exitY=0;exitDx=0;exitDy=0;fontStyle=1" edge="1" parent="7j66uzySZD4gq9qvuvEN-1" source="7j66uzySZD4gq9qvuvEN-57" target="7j66uzySZD4gq9qvuvEN-62">
          <mxGeometry relative="1" as="geometry">
            <Array as="points">
              <mxPoint x="380" y="240" />
              <mxPoint x="640" y="240" />
            </Array>
          </mxGeometry>
        </mxCell>
        <mxCell id="7j66uzySZD4gq9qvuvEN-64" value="`x_{\text{virtual}}`" style="edgeLabel;html=1;align=center;verticalAlign=middle;resizable=0;points=[];fontStyle=1" vertex="1" connectable="0" parent="7j66uzySZD4gq9qvuvEN-63">
          <mxGeometry x="0.0067" y="-1" relative="1" as="geometry">
            <mxPoint x="-1" y="-1" as="offset" />
          </mxGeometry>
        </mxCell>
        <mxCell id="7j66uzySZD4gq9qvuvEN-65" style="edgeStyle=orthogonalEdgeStyle;rounded=0;orthogonalLoop=1;jettySize=auto;html=1;entryX=0;entryY=0.5;entryDx=0;entryDy=0;entryPerimeter=0;exitX=1;exitY=0.25;exitDx=0;exitDy=0;fontStyle=1" edge="1" parent="7j66uzySZD4gq9qvuvEN-1" source="7j66uzySZD4gq9qvuvEN-58" target="7j66uzySZD4gq9qvuvEN-62">
          <mxGeometry relative="1" as="geometry" />
        </mxCell>
        <mxCell id="7j66uzySZD4gq9qvuvEN-66" value="`\Delta x`" style="edgeLabel;html=1;align=center;verticalAlign=middle;resizable=0;points=[];fontStyle=1" vertex="1" connectable="0" parent="7j66uzySZD4gq9qvuvEN-65">
          <mxGeometry relative="1" as="geometry">
            <mxPoint as="offset" />
          </mxGeometry>
        </mxCell>
        <mxCell id="7j66uzySZD4gq9qvuvEN-67" style="edgeStyle=orthogonalEdgeStyle;rounded=0;orthogonalLoop=1;jettySize=auto;html=1;entryX=0;entryY=0.5;entryDx=0;entryDy=0;fontStyle=1" edge="1" parent="7j66uzySZD4gq9qvuvEN-1" source="7j66uzySZD4gq9qvuvEN-62" target="7j66uzySZD4gq9qvuvEN-61">
          <mxGeometry relative="1" as="geometry">
            <mxPoint x="715" y="303" as="targetPoint" />
          </mxGeometry>
        </mxCell>
        <mxCell id="7j66uzySZD4gq9qvuvEN-68" value="`x_{\text{desired}}`" style="edgeLabel;html=1;align=center;verticalAlign=middle;resizable=0;points=[];fontStyle=1" vertex="1" connectable="0" parent="7j66uzySZD4gq9qvuvEN-67">
          <mxGeometry x="0.2" y="-1" relative="1" as="geometry">
            <mxPoint x="-6" y="-1" as="offset" />
          </mxGeometry>
        </mxCell>
        <mxCell id="7j66uzySZD4gq9qvuvEN-69" style="edgeStyle=orthogonalEdgeStyle;rounded=0;orthogonalLoop=1;jettySize=auto;html=1;entryX=0.5;entryY=0;entryDx=0;entryDy=0;fontStyle=1" edge="1" parent="7j66uzySZD4gq9qvuvEN-1" source="7j66uzySZD4gq9qvuvEN-71" target="7j66uzySZD4gq9qvuvEN-74">
          <mxGeometry relative="1" as="geometry" />
        </mxCell>
        <mxCell id="7j66uzySZD4gq9qvuvEN-70" value="`F`" style="edgeLabel;html=1;align=center;verticalAlign=middle;resizable=0;points=[];fontStyle=1" vertex="1" connectable="0" parent="7j66uzySZD4gq9qvuvEN-69">
          <mxGeometry x="-0.0156" relative="1" as="geometry">
            <mxPoint x="-42" as="offset" />
          </mxGeometry>
        </mxCell>
        <mxCell id="7j66uzySZD4gq9qvuvEN-71" value="&lt;span style=&quot;font-size: 10px;&quot;&gt;Servo Motors&lt;/span&gt;&lt;div&gt;&lt;span style=&quot;font-size: 10px;&quot;&gt;(Joints)&lt;/span&gt;&lt;/div&gt;" style="rounded=0;whiteSpace=wrap;html=1;fontStyle=1" vertex="1" parent="7j66uzySZD4gq9qvuvEN-1">
          <mxGeometry x="720" y="330" width="80" height="40" as="geometry" />
        </mxCell>
        <mxCell id="7j66uzySZD4gq9qvuvEN-72" style="edgeStyle=orthogonalEdgeStyle;rounded=0;orthogonalLoop=1;jettySize=auto;html=1;entryX=1;entryY=0.5;entryDx=0;entryDy=0;fontStyle=1" edge="1" parent="7j66uzySZD4gq9qvuvEN-1" source="7j66uzySZD4gq9qvuvEN-74" target="7j66uzySZD4gq9qvuvEN-78">
          <mxGeometry relative="1" as="geometry" />
        </mxCell>
        <mxCell id="7j66uzySZD4gq9qvuvEN-73" value="`F_{\text{actual}}`" style="edgeLabel;html=1;align=center;verticalAlign=middle;resizable=0;points=[];fontStyle=1" vertex="1" connectable="0" parent="7j66uzySZD4gq9qvuvEN-72">
          <mxGeometry x="-0.0222" y="1" relative="1" as="geometry">
            <mxPoint y="-1" as="offset" />
          </mxGeometry>
        </mxCell>
        <mxCell id="7j66uzySZD4gq9qvuvEN-74" value="&lt;span style=&quot;font-size: 10px;&quot;&gt;Envrionment&lt;/span&gt;&lt;div&gt;&lt;span style=&quot;font-size: 10px;&quot;&gt;(Payload)&lt;/span&gt;&lt;/div&gt;" style="rounded=0;whiteSpace=wrap;html=1;fontStyle=1" vertex="1" parent="7j66uzySZD4gq9qvuvEN-1">
          <mxGeometry x="860" y="400" width="80" height="40" as="geometry" />
        </mxCell>
        <mxCell id="7j66uzySZD4gq9qvuvEN-75" style="edgeStyle=orthogonalEdgeStyle;rounded=0;orthogonalLoop=1;jettySize=auto;html=1;entryX=0.5;entryY=1;entryDx=0;entryDy=0;fontStyle=1" edge="1" parent="7j66uzySZD4gq9qvuvEN-1" source="7j66uzySZD4gq9qvuvEN-78" target="7j66uzySZD4gq9qvuvEN-58">
          <mxGeometry relative="1" as="geometry" />
        </mxCell>
        <mxCell id="7j66uzySZD4gq9qvuvEN-76" style="edgeStyle=orthogonalEdgeStyle;rounded=0;orthogonalLoop=1;jettySize=auto;html=1;entryX=0.75;entryY=1;entryDx=0;entryDy=0;fontStyle=1" edge="1" parent="7j66uzySZD4gq9qvuvEN-1" source="7j66uzySZD4gq9qvuvEN-78" target="7j66uzySZD4gq9qvuvEN-57">
          <mxGeometry relative="1" as="geometry" />
        </mxCell>
        <mxCell id="7j66uzySZD4gq9qvuvEN-77" value="`F_\text{measured}`" style="edgeLabel;html=1;align=center;verticalAlign=middle;resizable=0;points=[];fontStyle=1" vertex="1" connectable="0" parent="7j66uzySZD4gq9qvuvEN-76">
          <mxGeometry x="0.0509" relative="1" as="geometry">
            <mxPoint x="10" as="offset" />
          </mxGeometry>
        </mxCell>
        <mxCell id="7j66uzySZD4gq9qvuvEN-78" value="&lt;span style=&quot;font-size: 10px;&quot;&gt;FSR&lt;/span&gt;" style="rounded=0;whiteSpace=wrap;html=1;fillColor=#f5f5f5;strokeColor=#666666;fontStyle=1;fillStyle=auto;fontColor=#333333;" vertex="1" parent="7j66uzySZD4gq9qvuvEN-1">
          <mxGeometry x="720" y="400" width="80" height="40" as="geometry" />
        </mxCell>
        <mxCell id="7j66uzySZD4gq9qvuvEN-79" style="edgeStyle=orthogonalEdgeStyle;rounded=0;orthogonalLoop=1;jettySize=auto;html=1;entryX=0;entryY=0.5;entryDx=0;entryDy=0;fontStyle=1" edge="1" parent="7j66uzySZD4gq9qvuvEN-1" target="7j66uzySZD4gq9qvuvEN-9">
          <mxGeometry relative="1" as="geometry">
            <mxPoint x="80" y="560" as="sourcePoint" />
            <mxPoint x="250" y="610" as="targetPoint" />
          </mxGeometry>
        </mxCell>
        <mxCell id="7j66uzySZD4gq9qvuvEN-80" value="`\text{Goal Pose}`" style="edgeLabel;html=1;align=center;verticalAlign=middle;resizable=0;points=[];fontStyle=1" vertex="1" connectable="0" parent="7j66uzySZD4gq9qvuvEN-79">
          <mxGeometry x="-0.1917" relative="1" as="geometry">
            <mxPoint x="11" as="offset" />
          </mxGeometry>
        </mxCell>
        <mxCell id="7j66uzySZD4gq9qvuvEN-81" style="edgeStyle=orthogonalEdgeStyle;rounded=0;orthogonalLoop=1;jettySize=auto;html=1;entryX=0.5;entryY=0;entryDx=0;entryDy=0;fontStyle=1" edge="1" parent="7j66uzySZD4gq9qvuvEN-1" source="7j66uzySZD4gq9qvuvEN-83" target="7j66uzySZD4gq9qvuvEN-86">
          <mxGeometry relative="1" as="geometry" />
        </mxCell>
        <mxCell id="7j66uzySZD4gq9qvuvEN-82" value="`\text{Color Image}`" style="edgeLabel;html=1;align=center;verticalAlign=middle;resizable=0;points=[];fontStyle=1" vertex="1" connectable="0" parent="7j66uzySZD4gq9qvuvEN-81">
          <mxGeometry x="0.0857" relative="1" as="geometry">
            <mxPoint y="-2" as="offset" />
          </mxGeometry>
        </mxCell>
        <mxCell id="7j66uzySZD4gq9qvuvEN-83" value="&lt;font style=&quot;font-size: 10px;&quot;&gt;RealSense&lt;/font&gt;&lt;div&gt;&lt;font style=&quot;font-size: 10px;&quot;&gt;D455f&lt;/font&gt;&lt;/div&gt;" style="rounded=0;whiteSpace=wrap;html=1;fillColor=#f5f5f5;strokeColor=#666666;fontStyle=1;fillStyle=auto;fontColor=#333333;" vertex="1" parent="7j66uzySZD4gq9qvuvEN-1">
          <mxGeometry x="200" y="240" width="80" height="40" as="geometry" />
        </mxCell>
        <mxCell id="7j66uzySZD4gq9qvuvEN-84" style="edgeStyle=orthogonalEdgeStyle;rounded=0;orthogonalLoop=1;jettySize=auto;html=1;entryX=0.25;entryY=1;entryDx=0;entryDy=0;exitX=0.5;exitY=1;exitDx=0;exitDy=0;fontStyle=1" edge="1" parent="7j66uzySZD4gq9qvuvEN-1" source="7j66uzySZD4gq9qvuvEN-86" target="7j66uzySZD4gq9qvuvEN-57">
          <mxGeometry relative="1" as="geometry">
            <Array as="points">
              <mxPoint x="250" y="400" />
              <mxPoint x="360" y="400" />
            </Array>
          </mxGeometry>
        </mxCell>
        <mxCell id="7j66uzySZD4gq9qvuvEN-85" value="`(x_{\text{monica}}-x_{\text{ross}})`" style="edgeLabel;html=1;align=center;verticalAlign=middle;resizable=0;points=[];fontStyle=1" vertex="1" connectable="0" parent="7j66uzySZD4gq9qvuvEN-84">
          <mxGeometry x="-0.2367" relative="1" as="geometry">
            <mxPoint x="21" as="offset" />
          </mxGeometry>
        </mxCell>
        <mxCell id="7j66uzySZD4gq9qvuvEN-86" value="&lt;span style=&quot;font-size: 10px;&quot;&gt;AprilTag v3&lt;/span&gt;" style="rounded=0;whiteSpace=wrap;html=1;fontStyle=1" vertex="1" parent="7j66uzySZD4gq9qvuvEN-1">
          <mxGeometry x="200" y="320" width="80" height="40" as="geometry" />
        </mxCell>
        <mxCell id="7j66uzySZD4gq9qvuvEN-87" value="`\theta_{\text{estimated, left}} \text{(Joint Space)}`" style="edgeLabel;html=1;align=center;verticalAlign=middle;resizable=0;points=[];fontStyle=1" vertex="1" connectable="0" parent="7j66uzySZD4gq9qvuvEN-1">
          <mxGeometry x="620" y="720" as="geometry" />
        </mxCell>
        <mxCell id="7j66uzySZD4gq9qvuvEN-88" style="edgeStyle=orthogonalEdgeStyle;rounded=0;orthogonalLoop=1;jettySize=auto;html=1;entryX=0.5;entryY=1;entryDx=0;entryDy=0;fontStyle=1" edge="1" parent="7j66uzySZD4gq9qvuvEN-1" source="7j66uzySZD4gq9qvuvEN-90" target="7j66uzySZD4gq9qvuvEN-9">
          <mxGeometry relative="1" as="geometry" />
        </mxCell>
        <mxCell id="7j66uzySZD4gq9qvuvEN-89" value="`\text{Pose}_{\text{filtered}}`" style="edgeLabel;html=1;align=center;verticalAlign=middle;resizable=0;points=[];fontStyle=1" vertex="1" connectable="0" parent="7j66uzySZD4gq9qvuvEN-88">
          <mxGeometry x="-0.1486" y="-1" relative="1" as="geometry">
            <mxPoint as="offset" />
          </mxGeometry>
        </mxCell>
        <mxCell id="7j66uzySZD4gq9qvuvEN-90" value="&lt;font style=&quot;font-size: 10px;&quot;&gt;EKF&lt;/font&gt;" style="rounded=0;whiteSpace=wrap;html=1;fontStyle=1" vertex="1" parent="7j66uzySZD4gq9qvuvEN-1">
          <mxGeometry x="200" y="630" width="80" height="40" as="geometry" />
        </mxCell>
        <mxCell id="7j66uzySZD4gq9qvuvEN-91" value="&lt;font style=&quot;font-size: 10px;&quot;&gt;IMU&lt;/font&gt;" style="rounded=0;whiteSpace=wrap;html=1;fillColor=#f5f5f5;strokeColor=#666666;fontStyle=1;fillStyle=auto;fontColor=#333333;" vertex="1" parent="7j66uzySZD4gq9qvuvEN-1">
          <mxGeometry x="200" y="710" width="80" height="40" as="geometry" />
        </mxCell>
        <mxCell id="7j66uzySZD4gq9qvuvEN-92" value="&lt;span&gt;&lt;font style=&quot;font-size: 18px;&quot;&gt;MOBILE BASE&lt;/font&gt;&lt;/span&gt;" style="text;html=1;align=left;verticalAlign=middle;resizable=0;points=[];autosize=1;strokeColor=none;fillColor=none;fontStyle=1" vertex="1" parent="7j66uzySZD4gq9qvuvEN-1">
          <mxGeometry x="190" y="440" width="140" height="40" as="geometry" />
        </mxCell>
        <mxCell id="7j66uzySZD4gq9qvuvEN-93" value="&lt;span&gt;&lt;font style=&quot;font-size: 18px;&quot;&gt;VISION&lt;/font&gt;&lt;/span&gt;" style="text;html=1;align=left;verticalAlign=middle;resizable=0;points=[];autosize=1;strokeColor=none;fillColor=none;fontStyle=1" vertex="1" parent="7j66uzySZD4gq9qvuvEN-1">
          <mxGeometry x="190" y="200" width="80" height="40" as="geometry" />
        </mxCell>
        <mxCell id="7j66uzySZD4gq9qvuvEN-94" value="&lt;span&gt;&lt;font style=&quot;font-size: 18px;&quot;&gt;MANIPULATOR&lt;/font&gt;&lt;/span&gt;" style="text;html=1;align=left;verticalAlign=middle;resizable=0;points=[];autosize=1;strokeColor=none;fillColor=none;fontStyle=1" vertex="1" parent="7j66uzySZD4gq9qvuvEN-1">
          <mxGeometry x="330" y="200" width="150" height="40" as="geometry" />
        </mxCell>
      </root>
    </mxGraphModel>
  </diagram>
</mxfile>
